<?xml version="1.0" encoding="UTF-8"?>
<svg xmlns="http://www.w3.org/2000/svg" xmlns:xlink="http://www.w3.org/1999/xlink" width="64px" height="64px" viewBox="0 0 64 64" version="1.1">
<g id="surface1">
<path style=" stroke:none;fill-rule:nonzero;fill:rgb(32.156864%,57.647061%,27.450982%);fill-opacity:1;" d="M 39.375 8.75 C 39.613281 9.050781 39.75 9.234375 39.75 9.625 C 39.667969 9.625 39.585938 9.625 39.5 9.625 C 39.457031 9.871094 39.417969 10.121094 39.375 10.375 C 39.59375 10.28125 39.59375 10.28125 39.820312 10.1875 C 40.46875 9.945312 41.082031 9.910156 41.75 10.125 C 41.75 10.414062 41.75 10.703125 41.75 11 C 41.667969 11.007812 41.585938 11.015625 41.5 11.023438 C 40.679688 11.101562 40.679688 11.101562 39.875 11.25 C 39.875 11.332031 39.875 11.414062 39.875 11.5 C 39.792969 11.5 39.710938 11.5 39.625 11.5 C 39.839844 12.105469 40.074219 12.363281 40.578125 12.75 C 40.875 13 40.875 13 41 13.375 C 41.058594 13.429688 41.113281 13.484375 41.171875 13.539062 C 41.457031 13.835938 41.605469 14.117188 41.75 14.5 C 41.671875 14.824219 41.671875 14.824219 41.5 15.125 C 41.230469 15.253906 41.230469 15.253906 40.902344 15.324219 C 40.726562 15.363281 40.726562 15.363281 40.546875 15.402344 C 40.421875 15.425781 40.296875 15.453125 40.171875 15.476562 C 40.046875 15.503906 39.921875 15.53125 39.796875 15.558594 C 39.488281 15.625 39.183594 15.6875 38.875 15.75 C 38.863281 15.921875 38.863281 15.921875 39.066406 16.21875 C 39.667969 17.292969 40.007812 18.195312 39.664062 19.441406 C 39.5625 19.71875 39.5625 19.71875 39.375 20.125 C 39.292969 20.125 39.210938 20.125 39.125 20.125 C 39.105469 20.269531 39.105469 20.269531 39.085938 20.414062 C 38.992188 20.785156 38.898438 20.875 38.625 21.125 C 38.589844 21.203125 38.558594 21.285156 38.523438 21.367188 C 38.308594 21.738281 37.980469 21.886719 37.625 22.125 C 37.332031 22.429688 37.066406 22.746094 36.875 23.125 C 36.796875 23.140625 36.714844 23.15625 36.632812 23.171875 C 36.546875 23.199219 36.460938 23.222656 36.375 23.25 C 36.289062 23.414062 36.203125 23.582031 36.125 23.75 C 36 23.792969 35.878906 23.832031 35.75 23.875 C 35.707031 23.957031 35.667969 24.039062 35.625 24.125 C 35.5 24.167969 35.378906 24.207031 35.25 24.25 C 35.578125 24.292969 35.910156 24.332031 36.25 24.375 C 36.25 24.417969 36.25 24.457031 36.25 24.5 C 36.351562 24.5 36.453125 24.496094 36.558594 24.496094 C 37.023438 24.492188 37.488281 24.488281 37.953125 24.484375 C 38.113281 24.480469 38.273438 24.480469 38.441406 24.476562 C 38.59375 24.476562 38.75 24.476562 38.910156 24.476562 C 39.054688 24.472656 39.195312 24.472656 39.34375 24.472656 C 39.765625 24.5 40.105469 24.597656 40.5 24.75 C 40.5625 25.667969 40.5625 25.667969 40.304688 26.015625 C 40.203125 26.09375 40.105469 26.171875 40 26.25 C 39.847656 26.375 39.695312 26.5 39.546875 26.625 C 39.472656 26.683594 39.398438 26.742188 39.324219 26.804688 C 39.109375 26.992188 39.109375 26.992188 38.996094 27.265625 C 38.875 27.5 38.875 27.5 38.5 27.625 C 38.828125 27.667969 39.160156 27.707031 39.5 27.75 C 39.5 27.667969 39.5 27.585938 39.5 27.5 C 40.128906 27.121094 40.535156 27.058594 41.25 27.125 C 41.625 27.3125 41.625 27.3125 41.875 27.5 C 41.84375 27.734375 41.84375 27.734375 41.75 28 C 41.375 28.238281 41.046875 28.289062 40.609375 28.320312 C 40.164062 28.347656 40.164062 28.347656 39.75 28.5 C 40.457031 28.644531 41.132812 28.628906 41.851562 28.609375 C 42.375 28.601562 42.785156 28.621094 43.25 28.875 C 43.375 29.117188 43.375 29.117188 43.375 29.375 C 43.171875 29.648438 43.058594 29.742188 42.714844 29.796875 C 42.09375 29.78125 41.582031 29.738281 41 29.5 C 40.957031 29.5 40.917969 29.5 40.875 29.5 C 40.875 29.542969 40.875 29.582031 40.875 29.625 C 40.628906 29.667969 40.378906 29.707031 40.125 29.75 C 40.507812 30.007812 40.847656 30.125 41.28125 30.265625 C 41.5 30.375 41.5 30.375 41.625 30.75 C 41.367188 31.03125 41.25 31.125 40.875 31.25 C 40.394531 31.265625 39.960938 31.273438 39.5 31.125 C 39.449219 30.914062 39.449219 30.914062 39.398438 30.695312 C 39.347656 30.546875 39.300781 30.402344 39.25 30.25 C 39.125 30.207031 39.003906 30.167969 38.875 30.125 C 38.75 30.082031 38.628906 30.042969 38.5 30 C 38.292969 29.957031 38.082031 29.914062 37.875 29.875 C 37.875 29.792969 37.875 29.710938 37.875 29.625 C 37.792969 29.621094 37.710938 29.621094 37.625 29.617188 C 37.246094 29.605469 36.871094 29.59375 36.492188 29.578125 C 36.363281 29.574219 36.234375 29.570312 36.097656 29.566406 C 35.398438 29.539062 34.789062 29.480469 34.125 29.25 C 34.082031 29.003906 34.042969 28.753906 34 28.5 C 34.117188 28.429688 34.230469 28.359375 34.351562 28.289062 C 34.75 28 34.878906 27.785156 35.125 27.375 C 35.398438 27.273438 35.398438 27.273438 35.625 27.25 C 35.667969 27.042969 35.707031 26.835938 35.75 26.625 C 34.511719 26.707031 33.273438 26.789062 32 26.875 C 32 26.957031 32 27.039062 32 27.125 C 31.855469 27.175781 31.855469 27.175781 31.710938 27.226562 C 31.292969 27.410156 31.078125 27.59375 30.875 28 C 30.800781 28.011719 30.726562 28.019531 30.648438 28.03125 C 30.332031 28.109375 30.332031 28.109375 30.132812 28.492188 C 29.839844 28.929688 29.71875 28.9375 29.25 29.125 C 28.871094 29.449219 28.476562 29.78125 28.261719 30.238281 C 28.117188 30.515625 27.957031 30.699219 27.734375 30.921875 C 27.660156 31 27.582031 31.074219 27.503906 31.152344 C 27.425781 31.230469 27.347656 31.308594 27.265625 31.390625 C 27.148438 31.507812 27.148438 31.507812 27.027344 31.628906 C 26.953125 31.707031 26.875 31.78125 26.796875 31.859375 C 26.695312 31.964844 26.695312 31.964844 26.589844 32.070312 C 26.375 32.25 26.375 32.25 26.113281 32.375 C 25.777344 32.550781 25.65625 32.800781 25.507812 33.140625 C 25.375 33.375 25.375 33.375 25 33.5 C 24.957031 33.667969 24.914062 33.832031 24.875 34 C 24.75 34.082031 24.628906 34.164062 24.5 34.25 C 24.410156 34.457031 24.328125 34.664062 24.25 34.875 C 24.058594 35.257812 23.863281 35.640625 23.667969 36.019531 C 23.425781 36.53125 23.359375 36.9375 23.363281 37.5 C 23.363281 37.671875 23.363281 37.671875 23.363281 37.851562 C 23.363281 37.972656 23.367188 38.09375 23.367188 38.21875 C 23.367188 38.339844 23.367188 38.464844 23.367188 38.589844 C 23.371094 38.894531 23.371094 39.195312 23.375 39.5 C 23.457031 39.5 23.539062 39.5 23.625 39.5 C 23.847656 39.828125 24 40.121094 24.125 40.5 C 24.25 40.582031 24.371094 40.664062 24.5 40.75 C 24.585938 41.015625 24.585938 41.015625 24.625 41.25 C 24.699219 41.257812 24.773438 41.265625 24.851562 41.273438 C 25.230469 41.414062 25.296875 41.660156 25.5 42 C 25.757812 42.089844 25.757812 42.089844 26 42.125 C 26.042969 42.207031 26.082031 42.289062 26.125 42.375 C 26.207031 42.417969 26.289062 42.457031 26.375 42.5 C 26.875 42.832031 27.375 43.167969 27.875 43.5 C 27.957031 43.542969 28.039062 43.582031 28.125 43.625 C 28.25 43.707031 28.371094 43.789062 28.5 43.875 C 28.582031 43.917969 28.664062 43.957031 28.75 44 C 29 44.125 29 44.125 29.375 44.375 C 29.542969 44.480469 29.714844 44.589844 29.882812 44.695312 C 29.96875 44.75 30.054688 44.804688 30.144531 44.859375 C 30.375 45.003906 30.375 45.003906 30.625 45.125 C 31 45.375 31.375 45.625 31.75 45.875 C 31.835938 45.917969 31.925781 45.957031 32.015625 46 C 32.25 46.125 32.25 46.125 32.375 46.375 C 32.457031 46.417969 32.539062 46.457031 32.625 46.5 C 32.707031 46.582031 32.789062 46.664062 32.875 46.75 C 32.957031 46.785156 33.039062 46.820312 33.125 46.859375 C 33.375 47 33.375 47 33.480469 47.222656 C 33.664062 47.574219 33.898438 47.808594 34.179688 48.085938 C 34.277344 48.183594 34.375 48.28125 34.476562 48.382812 C 34.742188 48.648438 34.742188 48.648438 35.125 48.75 C 35.167969 48.917969 35.207031 49.082031 35.25 49.25 C 35.375 49.292969 35.496094 49.332031 35.625 49.375 C 35.820312 49.699219 35.820312 49.699219 36.015625 50.101562 C 36.082031 50.234375 36.144531 50.367188 36.210938 50.503906 C 36.65625 51.515625 36.6875 52.757812 36.296875 53.796875 C 35.9375 54.566406 35.53125 55.253906 34.75 55.625 C 34.546875 55.867188 34.390625 56.089844 34.25 56.375 C 34.125 56.417969 34.003906 56.457031 33.875 56.5 C 33.800781 56.542969 33.726562 56.582031 33.648438 56.625 C 33.3125 56.777344 32.988281 56.824219 32.625 56.875 C 32.625 56.75 32.625 56.628906 32.625 56.5 C 32.699219 56.472656 32.773438 56.441406 32.851562 56.414062 C 33.148438 56.265625 33.148438 56.265625 33.3125 55.9375 C 33.519531 55.589844 33.652344 55.550781 34 55.375 C 34.101562 55.117188 34.101562 55.117188 34.125 54.875 C 34.207031 54.875 34.289062 54.875 34.375 54.875 C 34.390625 54.769531 34.40625 54.664062 34.421875 54.554688 C 34.5 54.125 34.5 54.125 34.632812 53.742188 C 34.929688 52.71875 34.859375 51.675781 34.371094 50.734375 C 34.226562 50.453125 34.164062 50.1875 34.125 49.875 C 34 49.832031 33.878906 49.792969 33.75 49.75 C 33.707031 49.582031 33.664062 49.417969 33.625 49.25 C 33.441406 49.007812 33.441406 49.007812 33.210938 48.789062 C 33.136719 48.714844 33.0625 48.636719 32.984375 48.5625 C 32.734375 48.363281 32.558594 48.320312 32.25 48.25 C 32.164062 48.085938 32.078125 47.917969 32 47.75 C 31.875 47.707031 31.753906 47.667969 31.625 47.625 C 31.144531 47.414062 31.144531 47.414062 31 47.125 C 30.917969 47.082031 30.835938 47.042969 30.75 47 C 30.5 46.832031 30.25 46.667969 30 46.5 C 29.921875 46.460938 29.839844 46.421875 29.757812 46.382812 C 29.5 46.25 29.5 46.25 29.28125 46.078125 C 28.882812 45.789062 28.445312 45.589844 28 45.375 C 27.917969 45.332031 27.835938 45.292969 27.75 45.25 C 27.671875 45.214844 27.59375 45.179688 27.515625 45.140625 C 27.25 45 27.25 45 27.007812 44.8125 C 26.726562 44.605469 26.453125 44.496094 26.125 44.375 C 25.875 44.25 25.875 44.25 25.570312 44 C 25.261719 43.730469 25.261719 43.730469 24.875 43.625 C 24.75 43.542969 24.628906 43.460938 24.5 43.375 C 24.417969 43.332031 24.335938 43.292969 24.25 43.25 C 24.125 43.167969 24.003906 43.085938 23.875 43 C 23.789062 42.957031 23.699219 42.917969 23.609375 42.875 C 23.375 42.75 23.375 42.75 23.25 42.5 C 23.171875 42.464844 23.089844 42.429688 23.007812 42.390625 C 22.691406 42.21875 22.65625 42.070312 22.5 41.75 C 22.265625 41.550781 22.265625 41.550781 22 41.375 C 21.515625 41.042969 21.515625 41.042969 21.375 40.625 C 21.296875 40.546875 21.21875 40.472656 21.136719 40.394531 C 20.382812 39.621094 20.152344 38.453125 20.105469 37.40625 C 20.148438 36.484375 20.332031 35.609375 20.945312 34.898438 C 21.148438 34.632812 21.148438 34.632812 21.164062 34.289062 C 21.289062 33.6875 21.621094 33.230469 22 32.75 C 22.082031 32.707031 22.164062 32.667969 22.25 32.625 C 22.304688 32.472656 22.304688 32.472656 22.359375 32.320312 C 22.527344 31.9375 22.640625 31.925781 23 31.75 C 23.082031 31.496094 23.082031 31.496094 23.125 31.25 C 23.207031 31.207031 23.289062 31.167969 23.375 31.125 C 23.417969 31 23.457031 30.878906 23.5 30.75 C 23.582031 30.710938 23.664062 30.671875 23.75 30.632812 C 23.832031 30.589844 23.914062 30.546875 24 30.5 C 24.082031 30.246094 24.082031 30.246094 24.125 30 C 24.207031 29.957031 24.289062 29.917969 24.375 29.875 C 24.410156 29.796875 24.445312 29.714844 24.484375 29.632812 C 24.652344 29.324219 24.800781 29.253906 25.125 29.125 C 25.125 28.917969 25.125 28.710938 25.125 28.5 C 25 28.457031 24.878906 28.417969 24.75 28.375 C 24.75 28.167969 24.75 27.960938 24.75 27.75 C 24.421875 27.792969 24.089844 27.832031 23.75 27.875 C 23.707031 28 23.667969 28.121094 23.625 28.25 C 23.367188 28.335938 23.367188 28.335938 23.125 28.375 C 23.125 28.582031 23.125 28.789062 23.125 29 C 22.601562 29.300781 22.230469 29.453125 21.625 29.375 C 21.335938 29.226562 21.335938 29.226562 21.125 29 C 21.03125 28.664062 21.03125 28.664062 21 28.375 C 21.195312 28.324219 21.195312 28.324219 21.398438 28.273438 C 21.820312 28.140625 22.132812 27.992188 22.5 27.75 C 22.277344 27.46875 22.277344 27.46875 21.984375 27.5 C 21.832031 27.519531 21.832031 27.519531 21.679688 27.539062 C 21.578125 27.550781 21.476562 27.5625 21.375 27.578125 C 21.125 27.601562 21.125 27.601562 21 27.75 C 20.34375 27.800781 19.941406 27.707031 19.375 27.375 C 19.40625 27.140625 19.40625 27.140625 19.5 26.875 C 19.917969 26.601562 20.355469 26.554688 20.84375 26.484375 C 20.988281 26.464844 21.136719 26.441406 21.289062 26.421875 C 21.398438 26.40625 21.511719 26.390625 21.625 26.375 C 21.5625 26.128906 21.5625 26.128906 21.5 25.875 C 21.957031 25.582031 22.34375 25.585938 22.875 25.625 C 23.0625 25.75 23.0625 25.75 23.25 25.875 C 23.542969 25.886719 23.832031 25.886719 24.125 25.875 C 24.113281 25.71875 24.105469 25.566406 24.09375 25.40625 C 24.09375 24.613281 24.289062 23.648438 24.808594 23.03125 C 25.261719 22.660156 25.605469 22.492188 26.195312 22.523438 C 26.953125 22.636719 27.652344 22.933594 28.367188 23.207031 C 28.527344 23.265625 28.527344 23.265625 28.6875 23.324219 C 28.785156 23.363281 28.882812 23.398438 28.980469 23.4375 C 29.285156 23.507812 29.457031 23.476562 29.75 23.375 C 29.757812 23.300781 29.765625 23.226562 29.773438 23.148438 C 29.914062 22.769531 30.160156 22.703125 30.5 22.5 C 30.519531 22.421875 30.535156 22.339844 30.554688 22.257812 C 30.667969 21.84375 31.03125 21.730469 31.375 21.5 C 31.464844 21.242188 31.464844 21.242188 31.5 21 C 31.625 20.917969 31.746094 20.835938 31.875 20.75 C 31.9375 20.5625 31.9375 20.5625 32 20.375 C 32.082031 20.332031 32.164062 20.292969 32.25 20.25 C 32.308594 20.101562 32.308594 20.101562 32.367188 19.953125 C 32.5 19.625 32.621094 19.484375 32.875 19.25 C 32.917969 19.167969 32.957031 19.085938 33 19 C 32.917969 18.917969 32.835938 18.835938 32.75 18.75 C 32.402344 19.164062 32.402344 19.164062 32.125 19.625 C 31.90625 19.695312 31.90625 19.695312 31.625 19.75 C 31.53125 19.777344 31.4375 19.800781 31.339844 19.828125 C 30.933594 19.882812 30.671875 19.808594 30.28125 19.6875 C 29.453125 19.464844 28.808594 19.480469 28 19.75 C 28.042969 19.832031 28.082031 19.914062 28.125 20 C 27.378906 20.472656 26.863281 20.558594 26 20.375 C 25.917969 20.167969 25.835938 19.960938 25.75 19.75 C 26.382812 19.398438 26.898438 19.210938 27.625 19.125 C 27.707031 19.042969 27.789062 18.960938 27.875 18.875 C 27.050781 18.6875 27.050781 18.6875 26.210938 18.625 C 25.824219 18.625 25.585938 18.566406 25.25 18.375 C 25.148438 18.109375 25.148438 18.109375 25.125 17.875 C 25.507812 17.609375 25.742188 17.5 26.210938 17.445312 C 26.347656 17.421875 26.484375 17.398438 26.625 17.375 C 26.667969 17.292969 26.707031 17.210938 26.75 17.125 C 26.792969 17.042969 26.832031 16.960938 26.875 16.875 C 27.304688 16.765625 27.304688 16.765625 27.75 16.75 C 27.9375 16.875 27.9375 16.875 28.125 17 C 28.167969 16.898438 28.210938 16.800781 28.257812 16.695312 C 28.5 16.375 28.5 16.375 28.921875 16.257812 C 29.363281 16.25 29.609375 16.300781 30 16.5 C 30.015625 17.09375 30.015625 17.09375 29.875 17.375 C 29.894531 17.457031 29.917969 17.539062 29.9375 17.625 C 30 17.875 30 17.875 29.875 18.125 C 30.164062 18.167969 30.453125 18.207031 30.75 18.25 C 30.773438 18.128906 30.773438 18.128906 30.796875 18.007812 C 30.824219 17.921875 30.847656 17.835938 30.875 17.75 C 30.957031 17.707031 31.039062 17.667969 31.125 17.625 C 31.214844 17.378906 31.300781 17.128906 31.375 16.875 C 31.457031 16.875 31.539062 16.875 31.625 16.875 C 31.679688 15.9375 31.679688 15.9375 31.25 15.125 C 30.949219 14.824219 30.640625 14.699219 30.257812 14.53125 C 29.683594 14.277344 29.117188 14.019531 28.546875 13.757812 C 28.242188 13.617188 28.242188 13.617188 27.875 13.5 C 27.832031 13.417969 27.792969 13.335938 27.75 13.25 C 27.5625 13.1875 27.5625 13.1875 27.375 13.125 C 27.335938 13.042969 27.296875 12.960938 27.257812 12.875 C 27.214844 12.792969 27.171875 12.710938 27.125 12.625 C 27.046875 12.605469 26.964844 12.589844 26.882812 12.570312 C 26.503906 12.464844 26.445312 12.207031 26.25 11.875 C 26.042969 11.746094 25.835938 11.621094 25.625 11.5 C 25.375 11.125 25.375 11.125 25.421875 10.726562 C 25.449219 10.609375 25.472656 10.496094 25.5 10.375 C 26.167969 10.148438 26.691406 10.101562 27.390625 10.164062 C 27.519531 10.171875 27.519531 10.171875 27.652344 10.183594 C 28 10.207031 28.335938 10.242188 28.675781 10.316406 C 29.066406 10.386719 29.441406 10.398438 29.835938 10.410156 C 30.914062 10.449219 31.902344 10.511719 32.882812 11.003906 C 33.140625 11.140625 33.140625 11.140625 33.5 11.25 C 33.550781 11.359375 33.550781 11.359375 33.601562 11.46875 C 33.898438 12.035156 34.4375 12.355469 35 12.625 C 35.042969 12.707031 35.082031 12.789062 35.125 12.875 C 35.207031 12.917969 35.289062 12.957031 35.375 13 C 35.515625 13.078125 35.660156 13.160156 35.804688 13.242188 C 36.632812 13.65625 37.578125 13.800781 38.5 13.75 C 38.398438 13.542969 38.296875 13.339844 38.195312 13.132812 C 38.140625 13.019531 38.082031 12.902344 38.023438 12.785156 C 37.898438 12.511719 37.898438 12.511719 37.75 12.375 C 37.109375 12.285156 36.464844 12.242188 35.820312 12.257812 C 35.410156 12.25 35.199219 12.246094 34.875 12 C 34.8125 11.8125 34.8125 11.8125 34.75 11.625 C 35.398438 11.242188 35.742188 11.09375 36.5 11.25 C 36.796875 11.085938 36.796875 11.085938 37 10.875 C 36.753906 10.832031 36.503906 10.792969 36.25 10.75 C 36.25 10.667969 36.25 10.585938 36.25 10.5 C 36.109375 10.445312 35.964844 10.390625 35.820312 10.335938 C 35.601562 10.230469 35.601562 10.230469 35.375 10.125 C 35.3125 9.9375 35.3125 9.9375 35.25 9.75 C 35.5 9.390625 35.664062 9.367188 36.101562 9.273438 C 36.578125 9.226562 36.933594 9.3125 37.375 9.5 C 37.417969 9.746094 37.457031 9.996094 37.5 10.25 C 37.625 10.25 37.746094 10.25 37.875 10.25 C 37.886719 9.808594 37.878906 9.421875 37.75 9 C 38.339844 8.640625 38.707031 8.546875 39.375 8.75 Z M 38.125 9.75 C 38.25 10 38.25 10 38.25 10 Z M 39.125 10 C 39.25 10.5 39.25 10.5 39.25 10.5 Z M 38 10.125 C 38.125 10.375 38.125 10.375 38.125 10.375 Z M 25.5 10.625 C 25.625 11 25.625 11 25.625 11 Z M 36.5 12 C 36.5 12.042969 36.5 12.082031 36.5 12.125 C 36.914062 12.125 37.324219 12.125 37.75 12.125 C 37.75 12.082031 37.75 12.042969 37.75 12 C 37.335938 12 36.925781 12 36.5 12 Z M 29.75 12.125 C 30.070312 12.445312 30.308594 12.441406 30.75 12.5 C 30.367188 12.171875 30.285156 12.125 29.75 12.125 Z M 38.5 13.875 C 39 14 39 14 39 14 Z M 31.875 15.875 C 32 16.125 32 16.125 32 16.125 Z M 29.75 16.625 C 29.875 17 29.875 17 29.875 17 Z M 26.875 17.125 C 27 17.375 27 17.375 27 17.375 Z M 28.25 17.125 C 28.375 17.375 28.375 17.375 28.375 17.375 Z M 28.5 17.25 C 28.5 17.375 28.5 17.496094 28.5 17.625 C 28.582031 17.625 28.664062 17.625 28.75 17.625 C 28.707031 17.5 28.667969 17.378906 28.625 17.25 C 28.582031 17.25 28.542969 17.25 28.5 17.25 Z M 39.375 17.25 C 39.5 17.625 39.5 17.625 39.5 17.625 Z M 27.375 17.75 C 27.292969 17.832031 27.210938 17.914062 27.125 18 C 27.414062 18.042969 27.703125 18.082031 28 18.125 C 27.917969 18 27.835938 17.878906 27.75 17.75 C 27.625 17.75 27.503906 17.75 27.375 17.75 Z M 39.5 17.75 C 39.5 18.203125 39.5 18.65625 39.5 19.125 C 39.542969 19.125 39.582031 19.125 39.625 19.125 C 39.625 18.671875 39.625 18.21875 39.625 17.75 C 39.582031 17.75 39.542969 17.75 39.5 17.75 Z M 33.375 17.875 C 33.5 18.125 33.5 18.125 33.5 18.125 Z M 39.375 19.25 C 39.5 19.625 39.5 19.625 39.5 19.625 Z M 24.625 23.5 C 24.75 23.75 24.75 23.75 24.75 23.75 Z M 24.5 23.875 C 24.625 24.125 24.625 24.125 24.625 24.125 Z M 24.375 24.25 C 24.5 24.75 24.5 24.75 24.5 24.75 Z M 26.75 24.625 C 26.605469 24.878906 26.605469 24.878906 26.574219 25.21875 C 26.496094 25.648438 26.359375 25.996094 26.179688 26.398438 C 25.9375 26.929688 25.9375 26.929688 25.875 27.5 C 26.242188 27.488281 26.242188 27.488281 26.625 27.375 C 26.777344 27.066406 26.777344 27.066406 26.875 26.75 C 27 26.707031 27.121094 26.667969 27.25 26.625 C 27.296875 26.460938 27.335938 26.292969 27.375 26.125 C 27.496094 25.914062 27.621094 25.703125 27.75 25.5 C 27.410156 25.140625 27.410156 25.140625 27 24.875 C 26.917969 24.792969 26.835938 24.710938 26.75 24.625 Z M 24.25 24.875 C 24.25 25.203125 24.25 25.535156 24.25 25.875 C 24.292969 25.875 24.332031 25.875 24.375 25.875 C 24.375 25.546875 24.375 25.214844 24.375 24.875 C 24.332031 24.875 24.292969 24.875 24.25 24.875 Z M 26.5 25.125 C 26.625 25.375 26.625 25.375 26.625 25.375 Z M 26.25 25.75 C 26.375 26 26.375 26 26.375 26 Z M 23.875 26 C 24.375 26.125 24.375 26.125 24.375 26.125 Z M 26.125 26.125 C 26.25 26.375 26.25 26.375 26.25 26.375 Z M 21.875 26.375 C 21.875 26.457031 21.875 26.539062 21.875 26.625 C 22.164062 26.625 22.453125 26.625 22.75 26.625 C 22.75 26.582031 22.75 26.542969 22.75 26.5 C 22.460938 26.457031 22.171875 26.417969 21.875 26.375 Z M 21 26.625 C 21 26.667969 21 26.707031 21 26.75 C 21.289062 26.75 21.578125 26.75 21.875 26.75 C 21.875 26.707031 21.875 26.667969 21.875 26.625 C 21.585938 26.625 21.296875 26.625 21 26.625 Z M 22.25 27.25 C 22.25 27.292969 22.25 27.332031 22.25 27.375 C 22.621094 27.4375 22.621094 27.4375 23 27.5 C 23.042969 27.417969 23.082031 27.335938 23.125 27.25 C 22.835938 27.25 22.546875 27.25 22.25 27.25 Z M 24.25 27.5 C 24.75 27.625 24.75 27.625 24.75 27.625 Z M 38.375 27.875 C 38.375 27.917969 38.375 27.957031 38.375 28 C 38.621094 28 38.871094 28 39.125 28 C 39.125 27.957031 39.125 27.917969 39.125 27.875 C 38.878906 27.875 38.628906 27.875 38.375 27.875 Z M 37.875 27.875 C 37.792969 27.957031 37.710938 28.039062 37.625 28.125 C 37.871094 28.125 38.121094 28.125 38.375 28.125 C 38.210938 28.042969 38.046875 27.960938 37.875 27.875 Z M 34.125 28.625 C 34.25 29 34.25 29 34.25 29 Z M 43.125 29.125 C 43.25 29.375 43.25 29.375 43.25 29.375 Z M 20.625 35.5 C 20.75 35.75 20.75 35.75 20.75 35.75 Z M 20.5 35.875 C 20.625 36.125 20.625 36.125 20.625 36.125 Z M 20.375 36.25 C 20.375 36.457031 20.375 36.664062 20.375 36.875 C 20.417969 36.875 20.457031 36.875 20.5 36.875 C 20.5 36.667969 20.5 36.460938 20.5 36.25 C 20.457031 36.25 20.417969 36.25 20.375 36.25 Z M 23.125 36.5 C 23.25 36.75 23.25 36.75 23.25 36.75 Z M 23 36.875 C 23 37.453125 23 38.03125 23 38.625 C 23.042969 38.625 23.082031 38.625 23.125 38.625 C 23.125 38.046875 23.125 37.46875 23.125 36.875 C 23.082031 36.875 23.042969 36.875 23 36.875 Z M 20.25 37.25 C 20.375 37.75 20.375 37.75 20.375 37.75 Z M 20.375 37.875 C 20.375 38.121094 20.375 38.371094 20.375 38.625 C 20.417969 38.625 20.457031 38.625 20.5 38.625 C 20.5 38.378906 20.5 38.128906 20.5 37.875 C 20.457031 37.875 20.417969 37.875 20.375 37.875 Z M 20.5 38.75 C 20.625 39 20.625 39 20.625 39 Z M 23.125 38.75 C 23.25 39 23.25 39 23.25 39 Z M 36.125 50.875 C 36.25 51.25 36.25 51.25 36.25 51.25 Z M 34.75 51.125 C 34.875 51.375 34.875 51.375 34.875 51.375 Z M 36.25 51.375 C 36.25 51.910156 36.25 52.449219 36.25 53 C 36.292969 53 36.332031 53 36.375 53 C 36.375 52.464844 36.375 51.925781 36.375 51.375 C 36.332031 51.375 36.292969 51.375 36.25 51.375 Z M 35 51.875 C 35 52.328125 35 52.78125 35 53.25 C 35.042969 53.25 35.082031 53.25 35.125 53.25 C 35.125 52.796875 35.125 52.34375 35.125 51.875 C 35.082031 51.875 35.042969 51.875 35 51.875 Z M 36.125 53.125 C 36.25 53.5 36.25 53.5 36.25 53.5 Z M 34.875 53.375 C 35 53.625 35 53.625 35 53.625 Z M 34.75 53.875 C 34.875 54.125 34.875 54.125 34.875 54.125 Z M 34.75 53.875 "/>
<path style=" stroke:none;fill-rule:nonzero;fill:rgb(49.019608%,69.01961%,45.09804%);fill-opacity:1;" d="M 29.320312 16.296875 C 29.421875 16.308594 29.523438 16.320312 29.625 16.332031 C 29.875 16.375 29.875 16.375 30 16.5 C 30.027344 17.066406 30.027344 17.066406 29.875 17.375 C 29.898438 17.457031 29.921875 17.539062 29.945312 17.625 C 29.964844 17.707031 29.980469 17.789062 30 17.875 C 29.917969 17.957031 29.835938 18.039062 29.75 18.125 C 29.667969 18 29.585938 17.878906 29.5 17.75 C 29.417969 17.875 29.335938 17.996094 29.25 18.125 C 28.921875 18.148438 28.921875 18.148438 28.625 18.125 C 28.582031 18.207031 28.542969 18.289062 28.5 18.375 C 28.085938 18.332031 27.675781 18.292969 27.25 18.25 C 27.25 18.167969 27.25 18.085938 27.25 18 C 27.457031 18 27.664062 18 27.875 18 C 27.492188 17.878906 27.257812 17.878906 26.875 18 C 26.875 18.082031 26.875 18.164062 26.875 18.25 C 27.164062 18.375 27.453125 18.496094 27.75 18.625 C 27.328125 18.765625 27.054688 18.71875 26.625 18.625 C 26.4375 18.628906 26.4375 18.628906 26.25 18.632812 C 25.847656 18.625 25.597656 18.574219 25.25 18.375 C 25.148438 18.109375 25.148438 18.109375 25.125 17.875 C 25.507812 17.609375 25.742188 17.5 26.210938 17.445312 C 26.347656 17.421875 26.484375 17.398438 26.625 17.375 C 26.667969 17.292969 26.707031 17.210938 26.75 17.125 C 26.792969 17.042969 26.832031 16.960938 26.875 16.875 C 27.304688 16.765625 27.304688 16.765625 27.75 16.75 C 27.875 16.832031 27.996094 16.914062 28.125 17 C 28.183594 16.898438 28.238281 16.800781 28.296875 16.695312 C 28.601562 16.214844 28.785156 16.234375 29.320312 16.296875 Z M 29.75 16.625 C 29.875 17 29.875 17 29.875 17 Z M 26.875 17.125 C 27 17.375 27 17.375 27 17.375 Z M 28.25 17.125 C 28.375 17.375 28.375 17.375 28.375 17.375 Z M 28.5 17.25 C 28.5 17.375 28.5 17.496094 28.5 17.625 C 28.582031 17.625 28.664062 17.625 28.75 17.625 C 28.707031 17.5 28.667969 17.378906 28.625 17.25 C 28.582031 17.25 28.542969 17.25 28.5 17.25 Z M 28.5 17.25 "/>
<path style=" stroke:none;fill-rule:nonzero;fill:rgb(54.509807%,72.156864%,51.764709%);fill-opacity:1;" d="M 41.25 27.125 C 41.625 27.3125 41.625 27.3125 41.875 27.5 C 41.84375 27.734375 41.84375 27.734375 41.75 28 C 41.375 28.238281 41.046875 28.289062 40.609375 28.320312 C 40.164062 28.347656 40.164062 28.347656 39.75 28.5 C 40.457031 28.644531 41.132812 28.628906 41.851562 28.609375 C 42.375 28.601562 42.785156 28.621094 43.25 28.875 C 43.375 29.117188 43.375 29.117188 43.375 29.375 C 43.171875 29.648438 43.058594 29.742188 42.714844 29.796875 C 42.613281 29.792969 42.507812 29.792969 42.398438 29.789062 C 42.242188 29.789062 42.242188 29.789062 42.082031 29.789062 C 41.75 29.75 41.75 29.75 41.394531 29.628906 C 40.933594 29.480469 40.496094 29.445312 40.015625 29.421875 C 39.929688 29.417969 39.84375 29.414062 39.753906 29.40625 C 39.546875 29.394531 39.335938 29.386719 39.125 29.375 C 39.125 29.292969 39.125 29.210938 39.125 29.125 C 39.25 29.042969 39.371094 28.960938 39.5 28.875 C 39.457031 28.796875 39.414062 28.71875 39.367188 28.640625 C 39.328125 28.554688 39.289062 28.464844 39.25 28.375 C 39.292969 28.292969 39.332031 28.210938 39.375 28.125 C 39.046875 28.125 38.714844 28.125 38.375 28.125 C 38.375 28.082031 38.375 28.042969 38.375 28 C 38.746094 27.917969 39.117188 27.835938 39.5 27.75 C 39.5 27.667969 39.5 27.585938 39.5 27.5 C 40.128906 27.121094 40.535156 27.058594 41.25 27.125 Z M 43.125 29.125 C 43.25 29.375 43.25 29.375 43.25 29.375 Z M 43.125 29.125 "/>
<path style=" stroke:none;fill-rule:nonzero;fill:rgb(45.490196%,65.882355%,41.176471%);fill-opacity:1;" d="M 24.25 24.25 C 24.519531 24.683594 24.527344 25.027344 24.515625 25.53125 C 24.511719 25.664062 24.511719 25.800781 24.507812 25.9375 C 24.507812 26.042969 24.503906 26.144531 24.5 26.25 C 24.171875 26.25 23.839844 26.25 23.5 26.25 C 23.4375 26.4375 23.4375 26.4375 23.375 26.625 C 23.035156 26.742188 23.035156 26.742188 22.617188 26.835938 C 22.480469 26.867188 22.339844 26.898438 22.199219 26.929688 C 22.09375 26.953125 21.984375 26.976562 21.875 27 C 22.371094 27 22.863281 27 23.375 27 C 23.332031 27.125 23.292969 27.246094 23.25 27.375 C 23.109375 27.371094 22.964844 27.363281 22.820312 27.359375 C 22.234375 27.359375 21.683594 27.457031 21.125 27.625 C 21.082031 27.667969 21.042969 27.707031 21 27.75 C 20.34375 27.800781 19.941406 27.707031 19.375 27.375 C 19.40625 27.140625 19.40625 27.140625 19.5 26.875 C 19.917969 26.601562 20.355469 26.554688 20.84375 26.484375 C 20.988281 26.464844 21.136719 26.441406 21.289062 26.421875 C 21.398438 26.40625 21.511719 26.390625 21.625 26.375 C 21.582031 26.210938 21.542969 26.046875 21.5 25.875 C 21.957031 25.582031 22.34375 25.585938 22.875 25.625 C 23 25.707031 23.121094 25.789062 23.25 25.875 C 23.542969 25.886719 23.832031 25.886719 24.125 25.875 C 24.125 25.800781 24.121094 25.722656 24.121094 25.648438 C 24.121094 25.546875 24.117188 25.445312 24.117188 25.34375 C 24.117188 25.246094 24.113281 25.148438 24.113281 25.046875 C 24.125 24.761719 24.171875 24.519531 24.25 24.25 Z M 24.25 24.875 C 24.25 25.203125 24.25 25.535156 24.25 25.875 C 24.292969 25.875 24.332031 25.875 24.375 25.875 C 24.375 25.546875 24.375 25.214844 24.375 24.875 C 24.332031 24.875 24.292969 24.875 24.25 24.875 Z M 23.875 26 C 24.375 26.125 24.375 26.125 24.375 26.125 Z M 21.875 26.375 C 21.875 26.457031 21.875 26.539062 21.875 26.625 C 22.164062 26.625 22.453125 26.625 22.75 26.625 C 22.75 26.582031 22.75 26.542969 22.75 26.5 C 22.460938 26.457031 22.171875 26.417969 21.875 26.375 Z M 21 26.625 C 21 26.667969 21 26.707031 21 26.75 C 21.289062 26.75 21.578125 26.75 21.875 26.75 C 21.875 26.707031 21.875 26.667969 21.875 26.625 C 21.585938 26.625 21.296875 26.625 21 26.625 Z M 21 26.625 "/>
<path style=" stroke:none;fill-rule:nonzero;fill:rgb(69.411767%,81.568629%,67.450982%);fill-opacity:1;" d="M 39.375 8.75 C 39.613281 9.050781 39.75 9.234375 39.75 9.625 C 39.667969 9.625 39.585938 9.625 39.5 9.625 C 39.457031 9.871094 39.417969 10.121094 39.375 10.375 C 39.523438 10.3125 39.667969 10.25 39.820312 10.1875 C 40.46875 9.945312 41.082031 9.910156 41.75 10.125 C 41.75 10.414062 41.75 10.703125 41.75 11 C 41.671875 11.007812 41.59375 11.015625 41.511719 11.023438 C 40.839844 11.089844 40.167969 11.164062 39.5 11.25 C 39.5 11.125 39.5 11.003906 39.5 10.875 C 39.292969 10.875 39.085938 10.875 38.875 10.875 C 38.890625 10.667969 38.90625 10.464844 38.921875 10.257812 C 38.929688 10.144531 38.9375 10.027344 38.949219 9.910156 C 38.964844 9.816406 38.980469 9.722656 39 9.625 C 39.082031 9.582031 39.164062 9.542969 39.25 9.5 C 39.25 9.335938 39.25 9.171875 39.25 9 C 38.960938 9 38.671875 9 38.375 9 C 38.292969 9.164062 38.210938 9.328125 38.125 9.5 C 38 9.457031 37.878906 9.417969 37.75 9.375 C 37.773438 9.140625 37.773438 9.140625 37.875 8.875 C 38.382812 8.5625 38.808594 8.59375 39.375 8.75 Z M 39.125 10 C 39.25 10.5 39.25 10.5 39.25 10.5 Z M 39.125 10 "/>
<path style=" stroke:none;fill-rule:nonzero;fill:rgb(62.7451%,77.64706%,60.784316%);fill-opacity:1;" d="M 34.875 51.875 C 35 51.875 35.121094 51.875 35.25 51.875 C 35.253906 52.140625 35.253906 52.40625 35.257812 52.671875 C 35.257812 52.820312 35.261719 52.96875 35.261719 53.121094 C 35.25 53.5 35.25 53.5 35.125 53.75 C 35.121094 54 35.121094 54.25 35.125 54.5 C 35.207031 54.5 35.289062 54.5 35.375 54.5 C 35.5 54.5 35.621094 54.5 35.75 54.5 C 35.578125 55.117188 35.277344 55.289062 34.75 55.625 C 34.539062 55.871094 34.394531 56.085938 34.25 56.375 C 34.0625 56.4375 34.0625 56.4375 33.875 56.5 C 33.761719 56.5625 33.761719 56.5625 33.648438 56.625 C 33.3125 56.777344 32.988281 56.824219 32.625 56.875 C 32.625 56.75 32.625 56.628906 32.625 56.5 C 32.738281 56.457031 32.738281 56.457031 32.851562 56.414062 C 33.148438 56.265625 33.148438 56.265625 33.3125 55.9375 C 33.519531 55.589844 33.652344 55.550781 34 55.375 C 34.101562 55.117188 34.101562 55.117188 34.125 54.875 C 34.207031 54.875 34.289062 54.875 34.375 54.875 C 34.390625 54.769531 34.40625 54.664062 34.421875 54.554688 C 34.5 54.125 34.5 54.125 34.625 53.726562 C 34.785156 53.113281 34.832031 52.507812 34.875 51.875 Z M 34.875 53.375 C 35 53.625 35 53.625 35 53.625 Z M 34.75 53.875 C 34.875 54.125 34.875 54.125 34.875 54.125 Z M 34.75 53.875 "/>
<path style=" stroke:none;fill-rule:nonzero;fill:rgb(35.686275%,60.000002%,31.764707%);fill-opacity:1;" d="M 39.25 29.375 C 39.785156 29.417969 40.324219 29.457031 40.875 29.5 C 40.875 29.542969 40.875 29.582031 40.875 29.625 C 40.628906 29.667969 40.378906 29.707031 40.125 29.75 C 40.507812 30.007812 40.847656 30.125 41.28125 30.265625 C 41.5 30.375 41.5 30.375 41.625 30.75 C 41.367188 31.03125 41.25 31.125 40.875 31.25 C 40.394531 31.265625 39.960938 31.273438 39.5 31.125 C 39.464844 30.984375 39.433594 30.839844 39.398438 30.695312 C 39.347656 30.546875 39.300781 30.402344 39.25 30.25 C 39.125 30.207031 39.003906 30.167969 38.875 30.125 C 38.875 30.042969 38.875 29.960938 38.875 29.875 C 39 29.875 39.121094 29.875 39.25 29.875 C 39.25 29.710938 39.25 29.546875 39.25 29.375 Z M 39.25 29.375 "/>
<path style=" stroke:none;fill-rule:nonzero;fill:rgb(49.411765%,67.450982%,45.882353%);fill-opacity:1;" d="M 37 10.75 C 37.242188 10.835938 37.242188 10.835938 37.5 11 C 37.601562 11.320312 37.601562 11.320312 37.625 11.625 C 37.582031 11.667969 37.542969 11.707031 37.5 11.75 C 37.609375 11.757812 37.609375 11.757812 37.71875 11.765625 C 38.140625 11.929688 38.273438 12.246094 38.5 12.625 C 38.457031 12.707031 38.417969 12.789062 38.375 12.875 C 38 12.75 38 12.75 37.75 12.375 C 37.453125 12.300781 37.453125 12.300781 37.109375 12.289062 C 36.988281 12.28125 36.863281 12.273438 36.738281 12.265625 C 36.429688 12.253906 36.128906 12.25 35.820312 12.257812 C 35.410156 12.25 35.199219 12.246094 34.875 12 C 34.832031 11.875 34.792969 11.753906 34.75 11.625 C 35.398438 11.242188 35.742188 11.09375 36.5 11.25 C 36.796875 11.09375 36.796875 11.09375 37 10.875 C 37 10.832031 37 10.792969 37 10.75 Z M 36.5 12 C 36.5 12.042969 36.5 12.082031 36.5 12.125 C 36.914062 12.125 37.324219 12.125 37.75 12.125 C 37.75 12.082031 37.75 12.042969 37.75 12 C 37.335938 12 36.925781 12 36.5 12 Z M 36.5 12 "/>
<path style=" stroke:none;fill-rule:nonzero;fill:rgb(44.313726%,64.705884%,40.784314%);fill-opacity:1;" d="M 27.875 18.75 C 28.039062 18.75 28.203125 18.75 28.375 18.75 C 28.375 18.875 28.375 18.996094 28.375 19.125 C 28.292969 19.125 28.210938 19.125 28.125 19.125 C 28.125 19.207031 28.125 19.289062 28.125 19.375 C 28.25 19.332031 28.371094 19.292969 28.5 19.25 C 28.675781 19.242188 28.847656 19.238281 29.023438 19.242188 C 29.257812 19.246094 29.257812 19.246094 29.5 19.25 C 29.5 19.292969 29.5 19.332031 29.5 19.375 C 29.003906 19.5 28.511719 19.621094 28 19.75 C 28.042969 19.832031 28.082031 19.914062 28.125 20 C 27.378906 20.472656 26.863281 20.558594 26 20.375 C 25.917969 20.167969 25.835938 19.960938 25.75 19.75 C 26.382812 19.398438 26.898438 19.210938 27.625 19.125 C 27.707031 19.042969 27.789062 18.960938 27.875 18.875 C 27.875 18.832031 27.875 18.792969 27.875 18.75 Z M 27.875 18.75 "/>
<path style=" stroke:none;fill-rule:nonzero;fill:rgb(51.372552%,70.980394%,46.666667%);fill-opacity:1;" d="M 24.25 24.25 C 24.519531 24.683594 24.527344 25.027344 24.515625 25.53125 C 24.511719 25.664062 24.511719 25.800781 24.507812 25.9375 C 24.507812 26.042969 24.503906 26.144531 24.5 26.25 C 24.171875 26.25 23.839844 26.25 23.5 26.25 C 23.457031 26.375 23.417969 26.496094 23.375 26.625 C 22.609375 26.878906 21.785156 26.757812 21 26.625 C 21 26.582031 21 26.542969 21 26.5 C 21.207031 26.457031 21.414062 26.417969 21.625 26.375 C 21.582031 26.210938 21.542969 26.046875 21.5 25.875 C 21.957031 25.582031 22.34375 25.585938 22.875 25.625 C 23 25.707031 23.121094 25.789062 23.25 25.875 C 23.542969 25.886719 23.832031 25.886719 24.125 25.875 C 24.125 25.800781 24.121094 25.722656 24.121094 25.648438 C 24.121094 25.546875 24.117188 25.445312 24.117188 25.34375 C 24.117188 25.246094 24.113281 25.148438 24.113281 25.046875 C 24.125 24.761719 24.171875 24.519531 24.25 24.25 Z M 24.25 24.875 C 24.25 25.203125 24.25 25.535156 24.25 25.875 C 24.292969 25.875 24.332031 25.875 24.375 25.875 C 24.375 25.546875 24.375 25.214844 24.375 24.875 C 24.332031 24.875 24.292969 24.875 24.25 24.875 Z M 23.875 26 C 24.375 26.125 24.375 26.125 24.375 26.125 Z M 21.875 26.375 C 21.875 26.457031 21.875 26.539062 21.875 26.625 C 22.164062 26.625 22.453125 26.625 22.75 26.625 C 22.75 26.582031 22.75 26.542969 22.75 26.5 C 22.460938 26.457031 22.171875 26.417969 21.875 26.375 Z M 21.875 26.375 "/>
<path style=" stroke:none;fill-rule:nonzero;fill:rgb(36.470589%,59.215689%,32.941177%);fill-opacity:1;" d="M 36.65625 9.304688 C 36.769531 9.316406 36.878906 9.332031 36.992188 9.34375 C 37.078125 9.355469 37.164062 9.363281 37.25 9.375 C 37.5 10.09375 37.5 10.09375 37.5 10.375 C 37.210938 10.566406 36.9375 10.722656 36.625 10.875 C 36.414062 10.734375 36.207031 10.59375 36.007812 10.4375 C 35.761719 10.257812 35.523438 10.128906 35.25 10 C 35.34375 9.695312 35.34375 9.695312 35.5 9.375 C 35.894531 9.21875 36.238281 9.253906 36.65625 9.304688 Z M 36.65625 9.304688 "/>
<path style=" stroke:none;fill-rule:nonzero;fill:rgb(62.7451%,74.509805%,60.784316%);fill-opacity:1;" d="M 26.25 10.375 C 26.125 10.417969 26.003906 10.457031 25.875 10.5 C 25.933594 10.964844 25.933594 10.964844 26.125 11.375 C 26.484375 11.566406 26.851562 11.664062 27.25 11.75 C 27.25 11.832031 27.25 11.914062 27.25 12 C 27.488281 12.042969 27.488281 12.042969 27.734375 12.085938 C 28.421875 12.234375 29.011719 12.539062 29.625 12.875 C 29.5 12.9375 29.5 12.9375 29.375 13 C 29.125 12.902344 29.125 12.902344 28.835938 12.757812 C 28.410156 12.558594 28.101562 12.4375 27.625 12.5 C 27.707031 12.707031 27.789062 12.914062 27.875 13.125 C 27.710938 13.125 27.546875 13.125 27.375 13.125 C 27.34375 13.046875 27.3125 12.964844 27.28125 12.882812 C 27.230469 12.796875 27.179688 12.710938 27.125 12.625 C 27.046875 12.605469 26.964844 12.589844 26.882812 12.570312 C 26.503906 12.464844 26.445312 12.207031 26.25 11.875 C 26.042969 11.746094 25.835938 11.621094 25.625 11.5 C 25.375 11.125 25.375 11.125 25.421875 10.726562 C 25.449219 10.609375 25.472656 10.496094 25.5 10.375 C 25.96875 10.234375 25.96875 10.234375 26.25 10.375 Z M 25.5 10.625 C 25.625 11 25.625 11 25.625 11 Z M 25.5 10.625 "/>
<path style=" stroke:none;fill-rule:nonzero;fill:rgb(76.862746%,87.058824%,75.294119%);fill-opacity:1;" d="M 21 34.875 C 21.152344 35.308594 21.09375 35.554688 20.945312 35.984375 C 20.597656 37.1875 20.597656 38.363281 21.125 39.5 C 21.210938 39.75 21.292969 40 21.375 40.25 C 21.144531 40.226562 21.144531 40.226562 20.875 40.125 C 20.203125 39.074219 19.996094 37.792969 20.195312 36.578125 C 20.355469 35.894531 20.492188 35.382812 21 34.875 Z M 20.625 35.5 C 20.75 35.75 20.75 35.75 20.75 35.75 Z M 20.5 35.875 C 20.625 36.125 20.625 36.125 20.625 36.125 Z M 20.375 36.25 C 20.375 36.457031 20.375 36.664062 20.375 36.875 C 20.417969 36.875 20.457031 36.875 20.5 36.875 C 20.5 36.667969 20.5 36.460938 20.5 36.25 C 20.457031 36.25 20.417969 36.25 20.375 36.25 Z M 20.25 37.25 C 20.375 37.75 20.375 37.75 20.375 37.75 Z M 20.375 37.875 C 20.375 38.121094 20.375 38.371094 20.375 38.625 C 20.417969 38.625 20.457031 38.625 20.5 38.625 C 20.5 38.378906 20.5 38.128906 20.5 37.875 C 20.457031 37.875 20.417969 37.875 20.375 37.875 Z M 20.5 38.75 C 20.625 39 20.625 39 20.625 39 Z M 20.5 38.75 "/>
<path style=" stroke:none;fill-rule:nonzero;fill:rgb(42.352942%,65.098041%,38.431373%);fill-opacity:1;" d="M 26.625 17.5 C 26.875 17.875 26.875 17.875 26.875 18.25 C 27.308594 18.4375 27.308594 18.4375 27.75 18.625 C 27.328125 18.765625 27.054688 18.71875 26.625 18.625 C 26.5 18.628906 26.378906 18.628906 26.25 18.632812 C 25.847656 18.625 25.597656 18.574219 25.25 18.375 C 25.148438 18.109375 25.148438 18.109375 25.125 17.875 C 25.632812 17.503906 26 17.429688 26.625 17.5 Z M 26.625 17.5 "/>
<path style=" stroke:none;fill-rule:nonzero;fill:rgb(35.294119%,59.215689%,30.588236%);fill-opacity:1;" d="M 40.25 27.125 C 40.925781 27.089844 41.316406 27.078125 41.875 27.5 C 41.835938 27.742188 41.835938 27.742188 41.75 28 C 41.339844 28.136719 41.03125 28.136719 40.601562 28.132812 C 40.398438 28.132812 40.398438 28.132812 40.191406 28.128906 C 40.085938 28.128906 39.980469 28.125 39.875 28.125 C 40 27.796875 40.121094 27.464844 40.25 27.125 Z M 40.25 27.125 "/>
<path style=" stroke:none;fill-rule:nonzero;fill:rgb(29.803923%,57.254905%,24.313726%);fill-opacity:1;" d="M 38.820312 8.867188 C 38.960938 8.871094 39.105469 8.871094 39.25 8.875 C 39.292969 9.082031 39.332031 9.289062 39.375 9.5 C 39.25 9.542969 39.128906 9.582031 39 9.625 C 38.957031 10.039062 38.917969 10.449219 38.875 10.875 C 38.667969 10.832031 38.460938 10.792969 38.25 10.75 C 38.246094 10.460938 38.246094 10.171875 38.242188 9.882812 C 38.242188 9.722656 38.238281 9.5625 38.238281 9.394531 C 38.253906 8.878906 38.253906 8.878906 38.820312 8.867188 Z M 38.820312 8.867188 "/>
<path style=" stroke:none;fill-rule:nonzero;fill:rgb(72.549021%,82.745099%,70.980394%);fill-opacity:1;" d="M 34.875 51.875 C 35 51.875 35.121094 51.875 35.25 51.875 C 35.253906 52.140625 35.253906 52.40625 35.257812 52.671875 C 35.257812 52.820312 35.261719 52.96875 35.261719 53.121094 C 35.25 53.5 35.25 53.5 35.125 53.75 C 35.121094 54 35.121094 54.25 35.125 54.5 C 35.207031 54.5 35.289062 54.5 35.375 54.5 C 35.5 54.5 35.621094 54.5 35.75 54.5 C 35.59375 54.957031 35.542969 55.097656 35.125 55.375 C 35 55.167969 34.878906 54.960938 34.75 54.75 C 34.632812 54.875 34.632812 54.875 34.515625 55 C 34.25 55.25 34.25 55.25 34 55.25 C 34.0625 55.0625 34.0625 55.0625 34.125 54.875 C 34.207031 54.875 34.289062 54.875 34.375 54.875 C 34.390625 54.769531 34.40625 54.664062 34.421875 54.554688 C 34.5 54.125 34.5 54.125 34.625 53.726562 C 34.785156 53.113281 34.832031 52.507812 34.875 51.875 Z M 34.875 53.375 C 35 53.625 35 53.625 35 53.625 Z M 34.75 53.875 C 34.875 54.125 34.875 54.125 34.875 54.125 Z M 34.75 53.875 "/>
<path style=" stroke:none;fill-rule:nonzero;fill:rgb(41.176471%,63.137257%,36.470589%);fill-opacity:1;" d="M 41.75 10.125 C 41.703125 10.429688 41.703125 10.429688 41.625 10.75 C 41.253906 10.933594 40.894531 10.917969 40.484375 10.945312 C 40.324219 10.957031 40.164062 10.964844 40 10.976562 C 39.875 10.984375 39.753906 10.992188 39.625 11 C 39.707031 10.835938 39.789062 10.671875 39.875 10.5 C 39.792969 10.417969 39.710938 10.335938 39.625 10.25 C 40.339844 9.972656 41.007812 9.886719 41.75 10.125 Z M 41.75 10.125 "/>
<path style=" stroke:none;fill-rule:nonzero;fill:rgb(29.019609%,56.862748%,24.313726%);fill-opacity:1;" d="M 40 28.875 C 40.457031 28.871094 40.910156 28.871094 41.367188 28.867188 C 41.5625 28.867188 41.5625 28.867188 41.761719 28.863281 C 41.945312 28.863281 41.945312 28.863281 42.136719 28.863281 C 42.308594 28.863281 42.308594 28.863281 42.484375 28.859375 C 42.75 28.875 42.75 28.875 42.875 29 C 42.878906 29.207031 42.878906 29.417969 42.875 29.625 C 41.90625 29.496094 40.949219 29.355469 40 29.125 C 40 29.042969 40 28.960938 40 28.875 Z M 40 28.875 "/>
<path style=" stroke:none;fill-rule:nonzero;fill:rgb(86.274511%,89.411765%,86.274511%);fill-opacity:1;" d="M 23.5 35.25 C 23.636719 35.46875 23.636719 35.46875 23.75 35.75 C 23.691406 35.992188 23.691406 35.992188 23.578125 36.25 C 23.316406 36.960938 23.332031 37.628906 23.351562 38.382812 C 23.351562 38.515625 23.355469 38.648438 23.355469 38.78125 C 23.359375 39.105469 23.367188 39.425781 23.375 39.75 C 23.125 39.625 23.125 39.625 22.984375 39.300781 C 22.863281 38.824219 22.847656 38.414062 22.851562 37.921875 C 22.851562 37.761719 22.851562 37.597656 22.855469 37.433594 C 22.878906 36.898438 23 36.480469 23.1875 35.984375 C 23.21875 35.898438 23.25 35.8125 23.285156 35.726562 C 23.375 35.5 23.375 35.5 23.5 35.25 Z M 23.125 36.5 C 23.25 36.75 23.25 36.75 23.25 36.75 Z M 23.125 38.75 C 23.25 39 23.25 39 23.25 39 Z M 23.125 38.75 "/>
<path style=" stroke:none;fill-rule:nonzero;fill:rgb(56.470591%,72.156864%,52.941179%);fill-opacity:1;" d="M 27.875 18.75 C 28.039062 18.75 28.203125 18.75 28.375 18.75 C 28.375 18.875 28.375 18.996094 28.375 19.125 C 28.292969 19.125 28.210938 19.125 28.125 19.125 C 28.125 19.207031 28.125 19.289062 28.125 19.375 C 28.25 19.332031 28.371094 19.292969 28.5 19.25 C 28.675781 19.242188 28.847656 19.238281 29.023438 19.242188 C 29.257812 19.246094 29.257812 19.246094 29.5 19.25 C 29.5 19.292969 29.5 19.332031 29.5 19.375 C 29.003906 19.5 28.511719 19.621094 28 19.75 C 28.042969 19.832031 28.082031 19.914062 28.125 20 C 27.878906 20.125 27.878906 20.125 27.625 20.25 C 27.582031 20.042969 27.542969 19.835938 27.5 19.625 C 27.128906 19.582031 26.757812 19.542969 26.375 19.5 C 26.75 19.25 26.75 19.25 27.195312 19.1875 C 27.632812 19.167969 27.632812 19.167969 27.875 18.875 C 27.875 18.832031 27.875 18.792969 27.875 18.75 Z M 27.875 18.75 "/>
<path style=" stroke:none;fill-rule:nonzero;fill:rgb(57.647061%,73.725492%,54.901963%);fill-opacity:1;" d="M 39.25 29.375 C 39.785156 29.417969 40.324219 29.457031 40.875 29.5 C 40.875 29.542969 40.875 29.582031 40.875 29.625 C 40.628906 29.667969 40.378906 29.707031 40.125 29.75 C 40.25 29.832031 40.371094 29.914062 40.5 30 C 40.625 30.082031 40.746094 30.164062 40.875 30.25 C 40.046875 30.15625 40.046875 30.15625 39.625 29.875 C 39.667969 30.203125 39.707031 30.535156 39.75 30.875 C 39.625 30.875 39.503906 30.875 39.375 30.875 C 39.332031 30.667969 39.292969 30.460938 39.25 30.25 C 39.125 30.207031 39.003906 30.167969 38.875 30.125 C 38.875 30.042969 38.875 29.960938 38.875 29.875 C 39 29.875 39.121094 29.875 39.25 29.875 C 39.25 29.710938 39.25 29.546875 39.25 29.375 Z M 39.25 29.375 "/>
<path style=" stroke:none;fill-rule:nonzero;fill:rgb(54.509807%,70.980394%,50.980395%);fill-opacity:1;" d="M 26.625 11.875 C 27.644531 12.007812 28.582031 12.269531 29.5 12.75 C 29.542969 12.832031 29.582031 12.914062 29.625 13 C 29.554688 12.972656 29.484375 12.949219 29.410156 12.921875 C 28.8125 12.714844 28.253906 12.566406 27.625 12.5 C 27.707031 12.707031 27.789062 12.914062 27.875 13.125 C 27.710938 13.125 27.546875 13.125 27.375 13.125 C 27.34375 13.058594 27.3125 12.992188 27.28125 12.921875 C 27.085938 12.554688 26.859375 12.21875 26.625 11.875 Z M 26.625 11.875 "/>
<path style=" stroke:none;fill-rule:nonzero;fill:rgb(72.156864%,80.392158%,70.980394%);fill-opacity:1;" d="M 31.125 14.75 C 31.601562 14.9375 31.855469 15.191406 32.125 15.625 C 32.265625 16.433594 31.917969 16.964844 31.5 17.625 C 31.375 17.625 31.253906 17.625 31.125 17.625 C 31.207031 17.378906 31.289062 17.128906 31.375 16.875 C 31.457031 16.875 31.539062 16.875 31.625 16.875 C 31.667969 16.175781 31.679688 15.710938 31.25 15.125 C 31.207031 15 31.167969 14.878906 31.125 14.75 Z M 31.875 15.875 C 32 16.125 32 16.125 32 16.125 Z M 31.875 15.875 "/>
<path style=" stroke:none;fill-rule:nonzero;fill:rgb(71.764708%,81.176472%,70.588237%);fill-opacity:1;" d="M 36.65625 9.304688 C 36.769531 9.316406 36.878906 9.332031 36.992188 9.34375 C 37.078125 9.355469 37.164062 9.363281 37.25 9.375 C 37.5 10.09375 37.5 10.09375 37.5 10.375 C 37.257812 10.28125 37.257812 10.28125 37 10.125 C 36.90625 9.859375 36.90625 9.859375 36.875 9.625 C 36.546875 9.582031 36.214844 9.542969 35.875 9.5 C 35.792969 9.746094 35.710938 9.996094 35.625 10.25 C 35.5 10.167969 35.378906 10.085938 35.25 10 C 35.34375 9.695312 35.34375 9.695312 35.5 9.375 C 35.894531 9.21875 36.238281 9.253906 36.65625 9.304688 Z M 36.65625 9.304688 "/>
<path style=" stroke:none;fill-rule:nonzero;fill:rgb(63.921571%,78.039217%,61.176473%);fill-opacity:1;" d="M 39.75 28.625 C 40.214844 28.617188 40.683594 28.613281 41.148438 28.609375 C 41.28125 28.605469 41.414062 28.605469 41.546875 28.601562 C 41.738281 28.601562 41.738281 28.601562 41.933594 28.601562 C 42.050781 28.597656 42.167969 28.597656 42.289062 28.597656 C 42.65625 28.628906 42.921875 28.710938 43.25 28.875 C 43.375 29.117188 43.375 29.117188 43.375 29.375 C 43.195312 29.59375 43.195312 29.59375 43 29.75 C 42.917969 29.503906 42.835938 29.253906 42.75 29 C 41.328125 28.9375 41.328125 28.9375 39.875 28.875 C 39.832031 28.792969 39.792969 28.710938 39.75 28.625 Z M 43.125 29.125 C 43.25 29.375 43.25 29.375 43.25 29.375 Z M 43.125 29.125 "/>
<path style=" stroke:none;fill-rule:nonzero;fill:rgb(71.764708%,81.176472%,71.372551%);fill-opacity:1;" d="M 28.5 29.5 C 28.582031 29.542969 28.664062 29.582031 28.75 29.625 C 28.167969 30.433594 27.527344 31.125 26.75 31.75 C 26.75 31.585938 26.75 31.421875 26.75 31.25 C 26.875 31.207031 26.996094 31.167969 27.125 31.125 C 27.210938 30.960938 27.296875 30.792969 27.375 30.625 C 27.457031 30.582031 27.539062 30.542969 27.625 30.5 C 27.757812 30.359375 27.882812 30.210938 28.007812 30.0625 C 28.371094 29.628906 28.371094 29.628906 28.5 29.5 Z M 28.5 29.5 "/>
<path style=" stroke:none;fill-rule:nonzero;fill:rgb(77.254903%,85.09804%,76.078433%);fill-opacity:1;" d="M 33.5 17.625 C 33.542969 17.625 33.582031 17.625 33.625 17.625 C 33.640625 18.667969 33.3125 19.460938 32.625 20.25 C 32.5 20.25 32.378906 20.25 32.25 20.25 C 32.398438 19.824219 32.542969 19.554688 32.875 19.25 C 32.917969 19.167969 32.957031 19.085938 33 19 C 32.957031 18.875 32.917969 18.753906 32.875 18.625 C 32.996094 18.515625 32.996094 18.515625 33.117188 18.40625 C 33.371094 18.128906 33.449219 17.992188 33.5 17.625 Z M 33.5 17.625 "/>
<path style=" stroke:none;fill-rule:nonzero;fill:rgb(70.980394%,80.784315%,69.803923%);fill-opacity:1;" d="M 21.75 25.625 C 21.832031 25.667969 21.914062 25.707031 22 25.75 C 22.078125 26.007812 22.078125 26.007812 22.125 26.25 C 22.289062 26.265625 22.449219 26.28125 22.617188 26.296875 C 22.894531 26.324219 22.894531 26.324219 23.125 26.375 C 23.167969 26.457031 23.207031 26.539062 23.25 26.625 C 22.605469 26.949219 21.6875 26.742188 21 26.625 C 21 26.582031 21 26.542969 21 26.5 C 21.207031 26.457031 21.414062 26.417969 21.625 26.375 C 21.597656 26.296875 21.574219 26.21875 21.546875 26.140625 C 21.53125 26.054688 21.515625 25.964844 21.5 25.875 C 21.582031 25.792969 21.664062 25.710938 21.75 25.625 Z M 21.875 26.375 C 21.875 26.457031 21.875 26.539062 21.875 26.625 C 22.164062 26.625 22.453125 26.625 22.75 26.625 C 22.75 26.582031 22.75 26.542969 22.75 26.5 C 22.460938 26.457031 22.171875 26.417969 21.875 26.375 Z M 21.875 26.375 "/>
<path style=" stroke:none;fill-rule:nonzero;fill:rgb(67.843139%,78.431374%,66.666669%);fill-opacity:1;" d="M 35.125 27.375 C 35.207031 27.417969 35.289062 27.457031 35.375 27.5 C 35.238281 27.820312 35.125 28 34.859375 28.234375 C 34.585938 28.492188 34.585938 28.492188 34.59375 28.90625 C 34.605469 29.019531 34.613281 29.132812 34.625 29.25 C 34.5 29.3125 34.5 29.3125 34.375 29.375 C 34.179688 29.226562 34.179688 29.226562 34 29 C 34 28.6875 34 28.6875 34.125 28.375 C 34.332031 28.246094 34.539062 28.121094 34.75 28 C 34.976562 27.679688 34.976562 27.679688 35.125 27.375 Z M 34.125 28.625 C 34.25 29 34.25 29 34.25 29 Z M 34.125 28.625 "/>
<path style=" stroke:none;fill-rule:nonzero;fill:rgb(56.862748%,72.549021%,54.901963%);fill-opacity:1;" d="M 28 17 C 27.792969 17.042969 27.585938 17.082031 27.375 17.125 C 27.375 17.25 27.375 17.371094 27.375 17.5 C 27.5 17.582031 27.621094 17.664062 27.75 17.75 C 27.460938 17.832031 27.171875 17.914062 26.875 18 C 26.605469 17.457031 26.605469 17.457031 26.695312 17.09375 C 26.875 16.875 26.875 16.875 27.171875 16.765625 C 27.53125 16.75 27.699219 16.808594 28 17 Z M 26.875 17.125 C 27 17.375 27 17.375 27 17.375 Z M 26.875 17.125 "/>
<path style=" stroke:none;fill-rule:nonzero;fill:rgb(55.29412%,72.549021%,52.549022%);fill-opacity:1;" d="M 21.25 27 C 21.953125 27 22.652344 27 23.375 27 C 23.332031 27.125 23.292969 27.246094 23.25 27.375 C 23.109375 27.371094 22.964844 27.371094 22.820312 27.367188 C 22.25 27.367188 21.691406 27.425781 21.125 27.5 C 21.167969 27.335938 21.207031 27.171875 21.25 27 Z M 21.25 27 "/>
<path style=" stroke:none;fill-rule:nonzero;fill:rgb(59.607846%,76.862746%,57.647061%);fill-opacity:1;" d="M 39.625 10.5 C 39.707031 10.542969 39.789062 10.582031 39.875 10.625 C 39.832031 10.707031 39.792969 10.789062 39.75 10.875 C 40.738281 10.8125 40.738281 10.8125 41.75 10.75 C 41.75 10.832031 41.75 10.914062 41.75 11 C 41.671875 11.007812 41.59375 11.015625 41.511719 11.023438 C 40.839844 11.089844 40.167969 11.164062 39.5 11.25 C 39.5 11.125 39.5 11.003906 39.5 10.875 C 39.417969 10.875 39.335938 10.875 39.25 10.875 C 39.25 10.792969 39.25 10.710938 39.25 10.625 C 39.375 10.582031 39.496094 10.542969 39.625 10.5 Z M 39.625 10.5 "/>
<path style=" stroke:none;fill-rule:nonzero;fill:rgb(77.254903%,87.843138%,76.078433%);fill-opacity:1;" d="M 34.25 49.875 C 34.332031 49.875 34.414062 49.875 34.5 49.875 C 34.917969 50.523438 35.070312 50.980469 35.125 51.75 C 34.75 51.625 34.75 51.625 34.609375 51.382812 C 34.566406 51.285156 34.527344 51.1875 34.484375 51.085938 C 34.421875 50.941406 34.421875 50.941406 34.359375 50.789062 C 34.261719 50.527344 34.175781 50.277344 34.125 50 C 34.167969 49.957031 34.207031 49.917969 34.25 49.875 Z M 34.75 51.125 C 34.875 51.375 34.875 51.375 34.875 51.375 Z M 34.75 51.125 "/>
<path style=" stroke:none;fill-rule:nonzero;fill:rgb(72.549021%,85.490197%,70.980394%);fill-opacity:1;" d="M 26.125 25.75 C 26.207031 25.832031 26.289062 25.914062 26.375 26 C 26.328125 26.542969 26.097656 27.007812 25.875 27.5 C 25.75 27.5 25.628906 27.5 25.5 27.5 C 25.515625 27.316406 25.53125 27.128906 25.546875 26.945312 C 25.554688 26.84375 25.5625 26.738281 25.574219 26.632812 C 25.597656 26.503906 25.597656 26.503906 25.625 26.375 C 25.707031 26.332031 25.789062 26.292969 25.875 26.25 C 26.015625 25.996094 26.015625 25.996094 26.125 25.75 Z M 26.125 26.125 C 26.25 26.375 26.25 26.375 26.25 26.375 Z M 26.125 26.125 "/>
<path style=" stroke:none;fill-rule:nonzero;fill:rgb(65.490198%,79.607844%,62.352943%);fill-opacity:1;" d="M 39.875 27.25 C 39.957031 27.292969 40.039062 27.332031 40.125 27.375 C 40.082031 27.582031 40.042969 27.789062 40 28 C 40.414062 28.042969 40.824219 28.082031 41.25 28.125 C 41.25 28.167969 41.25 28.207031 41.25 28.25 C 40.507812 28.3125 40.507812 28.3125 39.75 28.375 C 39.75 28.25 39.75 28.128906 39.75 28 C 39.542969 28 39.335938 28 39.125 28 C 39.375 27.75 39.625 27.5 39.875 27.25 Z M 39.875 27.25 "/>
<path style=" stroke:none;fill-rule:nonzero;fill:rgb(37.254903%,61.960787%,32.156864%);fill-opacity:1;" d="M 34.75 54.625 C 34.832031 54.707031 34.914062 54.789062 35 54.875 C 34.957031 55.289062 34.921875 55.453125 34.625 55.75 C 34.417969 55.75 34.210938 55.75 34 55.75 C 34.246094 55.378906 34.496094 55.007812 34.75 54.625 Z M 34.75 54.625 "/>
<path style=" stroke:none;fill-rule:nonzero;fill:rgb(83.137256%,87.450981%,82.352942%);fill-opacity:1;" d="M 22.875 37 C 22.917969 37 22.957031 37 23 37 C 23.007812 37.09375 23.011719 37.191406 23.019531 37.289062 C 23.027344 37.410156 23.039062 37.535156 23.046875 37.664062 C 23.054688 37.789062 23.0625 37.910156 23.074219 38.039062 C 23.105469 38.402344 23.105469 38.402344 23.375 38.75 C 23.40625 39.085938 23.386719 39.410156 23.375 39.75 C 23.125 39.625 23.125 39.625 22.984375 39.304688 C 22.863281 38.824219 22.847656 38.382812 22.859375 37.890625 C 22.859375 37.761719 22.859375 37.761719 22.863281 37.628906 C 22.867188 37.417969 22.871094 37.210938 22.875 37 Z M 23.125 38.75 C 23.25 39 23.25 39 23.25 39 Z M 23.125 38.75 "/>
<path style=" stroke:none;fill-rule:nonzero;fill:rgb(72.549021%,85.490197%,74.117649%);fill-opacity:1;" d="M 26.5 24.25 C 26.625 24.292969 26.746094 24.332031 26.875 24.375 C 26.839844 24.574219 26.804688 24.777344 26.765625 24.976562 C 26.746094 25.089844 26.726562 25.199219 26.703125 25.316406 C 26.625 25.625 26.625 25.625 26.375 26 C 26.234375 25.3125 26.277344 24.894531 26.5 24.25 Z M 26.5 25.125 C 26.625 25.375 26.625 25.375 26.625 25.375 Z M 26.5 25.125 "/>
<path style=" stroke:none;fill-rule:nonzero;fill:rgb(25.882354%,54.509807%,21.176471%);fill-opacity:1;" d="M 40 28.875 C 40.605469 28.863281 41.15625 28.882812 41.75 29 C 41.5 29.25 41.5 29.25 41.015625 29.273438 C 40.660156 29.265625 40.339844 29.238281 40 29.125 C 40 29.042969 40 28.960938 40 28.875 Z M 40 28.875 "/>
<path style=" stroke:none;fill-rule:nonzero;fill:rgb(85.490197%,89.019608%,84.705883%);fill-opacity:1;" d="M 20.25 36.25 C 20.292969 36.25 20.332031 36.25 20.375 36.25 C 20.574219 37.050781 20.535156 37.824219 20.375 38.625 C 20.332031 38.625 20.292969 38.625 20.25 38.625 C 20.226562 38.371094 20.203125 38.113281 20.179688 37.859375 C 20.167969 37.71875 20.152344 37.574219 20.140625 37.429688 C 20.125 37.015625 20.167969 36.65625 20.25 36.25 Z M 20.25 37.25 C 20.375 37.75 20.375 37.75 20.375 37.75 Z M 20.25 37.25 "/>
<path style=" stroke:none;fill-rule:nonzero;fill:rgb(66.274512%,75.294119%,64.313728%);fill-opacity:1;" d="M 39.625 29.375 C 40.039062 29.417969 40.449219 29.457031 40.875 29.5 C 40.875 29.542969 40.875 29.582031 40.875 29.625 C 40.628906 29.667969 40.378906 29.707031 40.125 29.75 C 40.25 29.832031 40.371094 29.914062 40.5 30 C 40.625 30.082031 40.746094 30.164062 40.875 30.25 C 40.0625 30.1875 40.0625 30.1875 39.757812 29.882812 C 39.625 29.625 39.625 29.625 39.625 29.375 Z M 39.625 29.375 "/>
<path style=" stroke:none;fill-rule:nonzero;fill:rgb(66.666669%,78.823531%,65.098041%);fill-opacity:1;" d="M 26.75 27.125 C 26.75 27.566406 26.648438 27.671875 26.375 28 C 26.167969 27.957031 25.960938 27.917969 25.75 27.875 C 25.75 27.75 25.75 27.628906 25.75 27.5 C 26.078125 27.375 26.410156 27.253906 26.75 27.125 Z M 26.75 27.125 "/>
<path style=" stroke:none;fill-rule:nonzero;fill:rgb(77.64706%,85.882354%,76.47059%);fill-opacity:1;" d="M 36.25 24.25 C 37.40625 24.25 38.558594 24.25 39.75 24.25 C 39.75 24.292969 39.75 24.332031 39.75 24.375 C 38.59375 24.375 37.441406 24.375 36.25 24.375 C 36.25 24.332031 36.25 24.292969 36.25 24.25 Z M 36.25 24.25 "/>
<path style=" stroke:none;fill-rule:nonzero;fill:rgb(28.235295%,57.254905%,24.313726%);fill-opacity:1;" d="M 27.25 17 C 27.496094 17 27.746094 17 28 17 C 28 17.207031 28 17.414062 28 17.625 C 27.875 17.6875 27.875 17.6875 27.75 17.75 C 27.484375 17.632812 27.484375 17.632812 27.25 17.5 C 27.25 17.335938 27.25 17.171875 27.25 17 Z M 27.25 17 "/>
<path style=" stroke:none;fill-rule:nonzero;fill:rgb(75.686276%,82.352942%,74.901962%);fill-opacity:1;" d="M 34.125 55.25 C 34.125 55.625 34.125 55.625 33.933594 55.851562 C 33.851562 55.929688 33.769531 56.007812 33.6875 56.085938 C 33.605469 56.164062 33.523438 56.242188 33.441406 56.320312 C 33.378906 56.378906 33.316406 56.4375 33.25 56.5 C 33.167969 56.457031 33.085938 56.417969 33 56.375 C 33.316406 55.847656 33.570312 55.527344 34.125 55.25 Z M 34.125 55.25 "/>
<path style=" stroke:none;fill-rule:nonzero;fill:rgb(82.352942%,89.411765%,79.607844%);fill-opacity:1;" d="M 34.875 49 C 35.234375 49.140625 35.234375 49.140625 35.625 49.375 C 35.796875 49.773438 35.796875 49.773438 35.875 50.125 C 35.75 50.167969 35.628906 50.207031 35.5 50.25 C 35.292969 49.832031 35.082031 49.417969 34.875 49 Z M 34.875 49 "/>
<path style=" stroke:none;fill-rule:nonzero;fill:rgb(58.039218%,74.901962%,54.11765%);fill-opacity:1;" d="M 28.625 17.25 C 28.707031 17.25 28.789062 17.25 28.875 17.25 C 28.917969 17.332031 28.957031 17.414062 29 17.5 C 29.125 17.542969 29.246094 17.582031 29.375 17.625 C 29.332031 17.789062 29.292969 17.953125 29.25 18.125 C 29.003906 18.125 28.753906 18.125 28.5 18.125 C 28.5 17.960938 28.5 17.796875 28.5 17.625 C 28.582031 17.625 28.664062 17.625 28.75 17.625 C 28.707031 17.5 28.667969 17.378906 28.625 17.25 Z M 28.625 17.25 "/>
<path style=" stroke:none;fill-rule:nonzero;fill:rgb(51.372552%,69.411767%,49.019608%);fill-opacity:1;" d="M 34.210938 55.71875 C 34.304688 55.730469 34.402344 55.738281 34.5 55.75 C 34.417969 55.957031 34.335938 56.164062 34.25 56.375 C 33.878906 56.3125 33.878906 56.3125 33.5 56.25 C 33.792969 55.757812 33.792969 55.757812 34.210938 55.71875 Z M 34.210938 55.71875 "/>
<path style=" stroke:none;fill-rule:nonzero;fill:rgb(30.980393%,51.764709%,29.803923%);fill-opacity:1;" d="M 34.875 29.625 C 35.863281 29.625 36.855469 29.625 37.875 29.625 C 37.875 29.667969 37.875 29.707031 37.875 29.75 C 36.886719 29.75 35.894531 29.75 34.875 29.75 C 34.875 29.707031 34.875 29.667969 34.875 29.625 Z M 34.875 29.625 "/>
<path style=" stroke:none;fill-rule:nonzero;fill:rgb(82.352942%,84.313726%,79.215688%);fill-opacity:1;" d="M 36.75 9.375 C 37.058594 9.4375 37.058594 9.4375 37.375 9.5 C 37.417969 9.789062 37.457031 10.078125 37.5 10.375 C 37.265625 10.296875 37.265625 10.296875 37 10.125 C 36.84375 9.734375 36.84375 9.734375 36.75 9.375 Z M 36.75 9.375 "/>
<path style=" stroke:none;fill-rule:nonzero;fill:rgb(69.01961%,80.000001%,67.058825%);fill-opacity:1;" d="M 22.875 28 C 23 28.042969 23.121094 28.082031 23.25 28.125 C 23.207031 28.414062 23.167969 28.703125 23.125 29 C 23 29 22.878906 29 22.75 29 C 22.671875 28.640625 22.671875 28.640625 22.625 28.25 C 22.707031 28.167969 22.789062 28.085938 22.875 28 Z M 22.875 28 "/>
<path style=" stroke:none;fill-rule:nonzero;fill:rgb(75.686276%,84.705883%,72.549021%);fill-opacity:1;" d="M 42.75 28.75 C 42.914062 28.792969 43.078125 28.832031 43.25 28.875 C 43.335938 29.101562 43.335938 29.101562 43.375 29.375 C 43.195312 29.59375 43.195312 29.59375 43 29.75 C 42.75 29.03125 42.75 29.03125 42.75 28.75 Z M 43.125 29.125 C 43.25 29.375 43.25 29.375 43.25 29.375 Z M 43.125 29.125 "/>
<path style=" stroke:none;fill-rule:nonzero;fill:rgb(57.647061%,71.372551%,56.078434%);fill-opacity:1;" d="M 29.875 28 C 30 28.042969 30.121094 28.082031 30.25 28.125 C 30.066406 28.710938 30.066406 28.710938 29.734375 28.914062 C 29.617188 28.957031 29.617188 28.957031 29.5 29 C 29.578125 28.632812 29.699219 28.328125 29.875 28 Z M 29.875 28 "/>
<path style=" stroke:none;fill-rule:nonzero;fill:rgb(78.823531%,88.235295%,73.333335%);fill-opacity:1;" d="M 24.75 27.75 C 24.984375 27.765625 24.984375 27.765625 25.25 27.875 C 25.40625 28.257812 25.40625 28.257812 25.5 28.625 C 25.253906 28.542969 25.003906 28.460938 24.75 28.375 C 24.75 28.167969 24.75 27.960938 24.75 27.75 Z M 24.75 27.75 "/>
<path style=" stroke:none;fill-rule:nonzero;fill:rgb(52.549022%,67.058825%,49.411765%);fill-opacity:1;" d="M 40 28.375 C 41.320312 28.351562 41.320312 28.351562 41.875 28.5 C 41.875 28.542969 41.875 28.582031 41.875 28.625 C 41.65625 28.632812 41.4375 28.636719 41.21875 28.640625 C 41.097656 28.644531 40.976562 28.644531 40.851562 28.648438 C 40.496094 28.625 40.296875 28.554688 40 28.375 Z M 40 28.375 "/>
<path style=" stroke:none;fill-rule:nonzero;fill:rgb(60.392159%,71.764708%,57.647061%);fill-opacity:1;" d="M 22.25 27.375 C 22.457031 27.375 22.664062 27.375 22.875 27.375 C 22.875 27.75 22.875 27.75 22.65625 28.03125 C 22.375 28.25 22.375 28.25 22.09375 28.21875 C 22.023438 28.1875 21.949219 28.15625 21.875 28.125 C 22.082031 28 22.289062 27.878906 22.5 27.75 C 22.417969 27.625 22.335938 27.503906 22.25 27.375 Z M 22.25 27.375 "/>
<path style=" stroke:none;fill-rule:nonzero;fill:rgb(76.078433%,83.92157%,75.294119%);fill-opacity:1;" d="M 41.25 27.25 C 41.414062 27.292969 41.578125 27.332031 41.75 27.375 C 41.792969 27.539062 41.832031 27.703125 41.875 27.875 C 41.75 27.957031 41.628906 28.039062 41.5 28.125 C 41.417969 27.835938 41.335938 27.546875 41.25 27.25 Z M 41.25 27.25 "/>
<path style=" stroke:none;fill-rule:nonzero;fill:rgb(73.333335%,81.568629%,72.156864%);fill-opacity:1;" d="M 39.875 12.375 C 40.296875 12.523438 40.582031 12.660156 40.875 13 C 40.832031 13.082031 40.792969 13.164062 40.75 13.25 C 40.390625 13.089844 40.128906 12.929688 39.875 12.625 C 39.875 12.542969 39.875 12.460938 39.875 12.375 Z M 39.875 12.375 "/>
<path style=" stroke:none;fill-rule:nonzero;fill:rgb(31.37255%,59.215689%,27.058825%);fill-opacity:1;" d="M 39.625 29.875 C 39.933594 30 39.933594 30 40.25 30.125 C 40.207031 30.207031 40.167969 30.289062 40.125 30.375 C 40.042969 30.375 39.960938 30.375 39.875 30.375 C 39.917969 30.582031 39.957031 30.789062 40 31 C 39.917969 31 39.835938 31 39.75 31 C 39.707031 30.628906 39.667969 30.257812 39.625 29.875 Z M 39.625 29.875 "/>
<path style=" stroke:none;fill-rule:nonzero;fill:rgb(61.176473%,73.725492%,60.000002%);fill-opacity:1;" d="M 35.75 26.625 C 35.914062 26.667969 36.078125 26.707031 36.25 26.75 C 36.015625 27.195312 35.855469 27.445312 35.375 27.625 C 35.4375 27.484375 35.5 27.339844 35.5625 27.195312 C 35.757812 26.8125 35.757812 26.8125 35.75 26.625 Z M 35.75 26.625 "/>
<path style=" stroke:none;fill-rule:nonzero;fill:rgb(54.509807%,69.01961%,53.333336%);fill-opacity:1;" d="M 32 26.875 C 32.824219 26.875 33.648438 26.875 34.5 26.875 C 34.5 26.917969 34.5 26.957031 34.5 27 C 33.675781 27 32.851562 27 32 27 C 32 26.957031 32 26.917969 32 26.875 Z M 32 26.875 "/>
<path style=" stroke:none;fill-rule:nonzero;fill:rgb(80.000001%,89.019608%,78.823531%);fill-opacity:1;" d="M 29.375 17.125 C 29.617188 17.21875 29.617188 17.21875 29.875 17.375 C 29.984375 17.625 29.984375 17.625 30 17.875 C 29.917969 17.957031 29.835938 18.039062 29.75 18.125 C 29.421875 17.742188 29.375 17.660156 29.375 17.125 Z M 29.375 17.125 "/>
<path style=" stroke:none;fill-rule:nonzero;fill:rgb(73.333335%,82.352942%,72.549021%);fill-opacity:1;" d="M 26.875 16.875 C 26.957031 16.917969 27.039062 16.957031 27.125 17 C 27.125 17.328125 27.125 17.660156 27.125 18 C 27 17.957031 26.878906 17.917969 26.75 17.875 C 26.648438 17.648438 26.648438 17.648438 26.625 17.375 C 26.742188 17.09375 26.742188 17.09375 26.875 16.875 Z M 26.875 17.125 C 27 17.375 27 17.375 27 17.375 Z M 26.875 17.125 "/>
<path style=" stroke:none;fill-rule:nonzero;fill:rgb(80.000001%,85.490197%,79.607844%);fill-opacity:1;" d="M 26.25 10.375 C 26.125 10.457031 26.003906 10.539062 25.875 10.625 C 25.722656 10.945312 25.722656 10.945312 25.625 11.25 C 25.542969 11.207031 25.460938 11.167969 25.375 11.125 C 25.417969 10.878906 25.457031 10.628906 25.5 10.375 C 25.96875 10.234375 25.96875 10.234375 26.25 10.375 Z M 25.5 10.625 C 25.625 11 25.625 11 25.625 11 Z M 25.5 10.625 "/>
<path style=" stroke:none;fill-rule:nonzero;fill:rgb(26.274511%,53.333336%,20.784314%);fill-opacity:1;" d="M 35.125 53.875 C 35.3125 54 35.3125 54 35.5 54.125 C 35.453125 54.367188 35.453125 54.367188 35.375 54.625 C 35.25 54.6875 35.25 54.6875 35.125 54.75 C 35.078125 54.5 35.035156 54.25 35 54 C 35.042969 53.957031 35.082031 53.917969 35.125 53.875 Z M 35.125 53.875 "/>
<path style=" stroke:none;fill-rule:nonzero;fill:rgb(80.784315%,85.490197%,80.000001%);fill-opacity:1;" d="M 41 30.25 C 41.242188 30.289062 41.242188 30.289062 41.5 30.375 C 41.542969 30.5 41.582031 30.621094 41.625 30.75 C 41.5 30.875 41.378906 30.996094 41.25 31.125 C 41.167969 30.835938 41.085938 30.546875 41 30.25 Z M 41 30.25 "/>
<path style=" stroke:none;fill-rule:nonzero;fill:rgb(75.294119%,84.313726%,74.901962%);fill-opacity:1;" d="M 25.25 29 C 25.25 29.125 25.25 29.246094 25.25 29.375 C 24.707031 29.875 24.707031 29.875 24.375 29.875 C 24.554688 29.394531 24.804688 29.234375 25.25 29 Z M 25.25 29 "/>
<path style=" stroke:none;fill-rule:nonzero;fill:rgb(76.47059%,81.568629%,75.294119%);fill-opacity:1;" d="M 25.375 17.625 C 25.457031 17.667969 25.539062 17.707031 25.625 17.75 C 25.625 17.957031 25.625 18.164062 25.625 18.375 C 25.5 18.375 25.378906 18.375 25.25 18.375 C 25.171875 18.140625 25.171875 18.140625 25.125 17.875 C 25.207031 17.792969 25.289062 17.710938 25.375 17.625 Z M 25.375 17.625 "/>
<path style=" stroke:none;fill-rule:nonzero;fill:rgb(86.666667%,90.980393%,86.666667%);fill-opacity:1;" d="M 29 10.25 C 29.785156 10.25 30.566406 10.25 31.375 10.25 C 31.375 10.292969 31.375 10.332031 31.375 10.375 C 30.589844 10.375 29.808594 10.375 29 10.375 C 29 10.332031 29 10.292969 29 10.25 Z M 29 10.25 "/>
<path style=" stroke:none;fill-rule:nonzero;fill:rgb(66.274512%,78.431374%,65.490198%);fill-opacity:1;" d="M 21.625 40.625 C 21.707031 40.625 21.789062 40.625 21.875 40.625 C 22.078125 40.875 22.078125 40.875 22.25 41.125 C 22.207031 41.207031 22.167969 41.289062 22.125 41.375 C 21.960938 41.292969 21.796875 41.210938 21.625 41.125 C 21.625 40.960938 21.625 40.796875 21.625 40.625 Z M 21.625 40.625 "/>
<path style=" stroke:none;fill-rule:nonzero;fill:rgb(55.686277%,66.274512%,58.039218%);fill-opacity:1;" d="M 27.25 31 C 27.332031 31.042969 27.414062 31.082031 27.5 31.125 C 27.128906 31.433594 27.128906 31.433594 26.75 31.75 C 26.75 31.585938 26.75 31.421875 26.75 31.25 C 26.984375 31.117188 26.984375 31.117188 27.25 31 Z M 27.25 31 "/>
<path style=" stroke:none;fill-rule:nonzero;fill:rgb(72.156864%,82.352942%,71.764708%);fill-opacity:1;" d="M 30.625 22.375 C 30.625 22.5 30.625 22.621094 30.625 22.75 C 30.082031 23.25 30.082031 23.25 29.75 23.25 C 29.878906 22.925781 29.953125 22.777344 30.257812 22.601562 C 30.335938 22.566406 30.417969 22.535156 30.5 22.5 C 30.542969 22.457031 30.582031 22.417969 30.625 22.375 Z M 30.625 22.375 "/>
<path style=" stroke:none;fill-rule:nonzero;fill:rgb(71.764708%,77.64706%,70.980394%);fill-opacity:1;" d="M 31.25 21.625 C 31.25 21.75 31.25 21.871094 31.25 22 C 30.832031 22.375 30.832031 22.375 30.5 22.375 C 30.632812 22.046875 30.707031 21.902344 31.015625 21.71875 C 31.09375 21.6875 31.171875 21.65625 31.25 21.625 Z M 31.25 21.625 "/>
<path style=" stroke:none;fill-rule:nonzero;fill:rgb(79.607844%,85.882354%,78.823531%);fill-opacity:1;" d="M 35.5 54.375 C 35.582031 54.417969 35.664062 54.457031 35.75 54.5 C 35.667969 54.707031 35.585938 54.914062 35.5 55.125 C 35.375 55.125 35.253906 55.125 35.125 55.125 C 35.359375 54.515625 35.359375 54.515625 35.5 54.375 Z M 35.5 54.375 "/>
<path style=" stroke:none;fill-rule:nonzero;fill:rgb(79.607844%,87.058824%,78.823531%);fill-opacity:1;" d="M 21.125 28.25 C 21.382812 28.304688 21.382812 28.304688 21.625 28.375 C 21.542969 28.621094 21.460938 28.871094 21.375 29.125 C 21.292969 29.082031 21.210938 29.042969 21.125 29 C 21.039062 28.6875 21.039062 28.6875 21 28.375 C 21.042969 28.332031 21.082031 28.292969 21.125 28.25 Z M 21.125 28.25 "/>
<path style=" stroke:none;fill-rule:nonzero;fill:rgb(64.705884%,77.254903%,64.705884%);fill-opacity:1;" d="M 34.5 26.75 C 34.914062 26.75 35.324219 26.75 35.75 26.75 C 35.75 26.792969 35.75 26.832031 35.75 26.875 C 35.335938 26.875 34.925781 26.875 34.5 26.875 C 34.5 26.832031 34.5 26.792969 34.5 26.75 Z M 34.5 26.75 "/>
<path style=" stroke:none;fill-rule:nonzero;fill:rgb(49.803922%,63.529414%,49.803922%);fill-opacity:1;" d="M 41.75 29.875 C 42.121094 29.875 42.492188 29.875 42.875 29.875 C 42.875 29.917969 42.875 29.957031 42.875 30 C 42.503906 30 42.132812 30 41.75 30 C 41.75 29.957031 41.75 29.917969 41.75 29.875 Z M 41.75 29.875 "/>
<path style=" stroke:none;fill-rule:nonzero;fill:rgb(66.666669%,100%,66.666669%);fill-opacity:1;" d="M 26.375 9.875 C 26.746094 9.875 27.117188 9.875 27.5 9.875 C 27.5 9.917969 27.5 9.957031 27.5 10 C 27.128906 10 26.757812 10 26.375 10 C 26.375 9.957031 26.375 9.917969 26.375 9.875 Z M 26.375 9.875 "/>
<path style=" stroke:none;fill-rule:nonzero;fill:rgb(52.941179%,74.901962%,49.803922%);fill-opacity:1;" d="M 20 27.875 C 20.328125 27.875 20.660156 27.875 21 27.875 C 21 27.917969 21 27.957031 21 28 C 20.671875 28 20.339844 28 20 28 C 20 27.957031 20 27.917969 20 27.875 Z M 20 27.875 "/>
<path style=" stroke:none;fill-rule:nonzero;fill:rgb(56.078434%,81.176472%,56.078434%);fill-opacity:1;" d="M 40.25 26.875 C 40.578125 26.875 40.910156 26.875 41.25 26.875 C 41.25 26.917969 41.25 26.957031 41.25 27 C 40.921875 27 40.589844 27 40.25 27 C 40.25 26.957031 40.25 26.917969 40.25 26.875 Z M 40.25 26.875 "/>
<path style=" stroke:none;fill-rule:nonzero;fill:rgb(52.941179%,68.627453%,49.803922%);fill-opacity:1;" d="M 20 26.375 C 20.328125 26.375 20.660156 26.375 21 26.375 C 21 26.417969 21 26.457031 21 26.5 C 20.671875 26.5 20.339844 26.5 20 26.5 C 20 26.457031 20 26.417969 20 26.375 Z M 20 26.375 "/>
<path style=" stroke:none;fill-rule:nonzero;fill:rgb(49.803922%,71.764708%,46.666667%);fill-opacity:1;" d="M 35.375 12.375 C 35.703125 12.375 36.035156 12.375 36.375 12.375 C 36.375 12.417969 36.375 12.457031 36.375 12.5 C 36.046875 12.5 35.714844 12.5 35.375 12.5 C 35.375 12.457031 35.375 12.417969 35.375 12.375 Z M 35.375 12.375 "/>
<path style=" stroke:none;fill-rule:nonzero;fill:rgb(53.333336%,70.980394%,53.333336%);fill-opacity:1;" d="M 40 31.375 C 40.289062 31.375 40.578125 31.375 40.875 31.375 C 40.875 31.417969 40.875 31.457031 40.875 31.5 C 40.585938 31.5 40.296875 31.5 40 31.5 C 40 31.457031 40 31.417969 40 31.375 Z M 40 31.375 "/>
<path style=" stroke:none;fill-rule:nonzero;fill:rgb(53.333336%,70.980394%,53.333336%);fill-opacity:1;" d="M 22 25.375 C 22.289062 25.375 22.578125 25.375 22.875 25.375 C 22.875 25.417969 22.875 25.457031 22.875 25.5 C 22.585938 25.5 22.296875 25.5 22 25.5 C 22 25.457031 22 25.417969 22 25.375 Z M 22 25.375 "/>
<path style=" stroke:none;fill-rule:nonzero;fill:rgb(72.941178%,79.215688%,70.980394%);fill-opacity:1;" d="M 27.25 18.875 C 27.457031 18.875 27.664062 18.875 27.875 18.875 C 27.5 19.125 27.5 19.125 27.25 19.125 C 27.25 19.042969 27.25 18.960938 27.25 18.875 Z M 27.25 18.875 "/>
<path style=" stroke:none;fill-rule:nonzero;fill:rgb(67.450982%,74.901962%,60.392159%);fill-opacity:1;" d="M 25.75 17.25 C 26.039062 17.25 26.328125 17.25 26.625 17.25 C 26.625 17.292969 26.625 17.332031 26.625 17.375 C 26.335938 17.375 26.046875 17.375 25.75 17.375 C 25.75 17.332031 25.75 17.292969 25.75 17.25 Z M 25.75 17.25 "/>
<path style=" stroke:none;fill-rule:nonzero;fill:rgb(49.803922%,60.392159%,49.803922%);fill-opacity:1;" d="M 40.375 11.25 C 40.664062 11.25 40.953125 11.25 41.25 11.25 C 41.25 11.292969 41.25 11.332031 41.25 11.375 C 40.960938 11.375 40.671875 11.375 40.375 11.375 C 40.375 11.332031 40.375 11.292969 40.375 11.25 Z M 40.375 11.25 "/>
<path style=" stroke:none;fill-rule:nonzero;fill:rgb(60.392159%,74.901962%,60.392159%);fill-opacity:1;" d="M 27.5 10 C 27.789062 10 28.078125 10 28.375 10 C 28.375 10.042969 28.375 10.082031 28.375 10.125 C 28.085938 10.125 27.796875 10.125 27.5 10.125 C 27.5 10.082031 27.5 10.042969 27.5 10 Z M 27.5 10 "/>
<path style=" stroke:none;fill-rule:nonzero;fill:rgb(56.862748%,70.980394%,53.333336%);fill-opacity:1;" d="M 40.375 9.75 C 40.664062 9.75 40.953125 9.75 41.25 9.75 C 41.25 9.792969 41.25 9.832031 41.25 9.875 C 40.960938 9.875 40.671875 9.875 40.375 9.875 C 40.375 9.832031 40.375 9.792969 40.375 9.75 Z M 40.375 9.75 "/>
<path style=" stroke:none;fill-rule:nonzero;fill:rgb(62.352943%,84.705883%,62.352943%);fill-opacity:1;" d="M 40.875 29.625 C 41.121094 29.625 41.371094 29.625 41.625 29.625 C 41.625 29.667969 41.625 29.707031 41.625 29.75 C 41.378906 29.75 41.128906 29.75 40.875 29.75 C 40.875 29.707031 40.875 29.667969 40.875 29.625 Z M 40.875 29.625 "/>
<path style=" stroke:none;fill-rule:nonzero;fill:rgb(70.588237%,83.137256%,70.588237%);fill-opacity:1;" d="M 21.625 29.5 C 21.871094 29.5 22.121094 29.5 22.375 29.5 C 22.375 29.542969 22.375 29.582031 22.375 29.625 C 22.128906 29.625 21.878906 29.625 21.625 29.625 C 21.625 29.582031 21.625 29.542969 21.625 29.5 Z M 21.625 29.5 "/>
<path style=" stroke:none;fill-rule:nonzero;fill:rgb(62.352943%,70.588237%,58.039218%);fill-opacity:1;" d="M 41.875 28.375 C 42.121094 28.375 42.371094 28.375 42.625 28.375 C 42.625 28.417969 42.625 28.457031 42.625 28.5 C 42.378906 28.5 42.128906 28.5 41.875 28.5 C 41.875 28.457031 41.875 28.417969 41.875 28.375 Z M 41.875 28.375 "/>
<path style=" stroke:none;fill-rule:nonzero;fill:rgb(58.039218%,72.156864%,53.725493%);fill-opacity:1;" d="M 21.5 27.5 C 21.746094 27.5 21.996094 27.5 22.25 27.5 C 22.25 27.542969 22.25 27.582031 22.25 27.625 C 22.003906 27.625 21.753906 27.625 21.5 27.625 C 21.5 27.582031 21.5 27.542969 21.5 27.5 Z M 21.5 27.5 "/>
<path style=" stroke:none;fill-rule:nonzero;fill:rgb(70.588237%,83.137256%,70.588237%);fill-opacity:1;" d="M 25.875 18.75 C 26.121094 18.75 26.371094 18.75 26.625 18.75 C 26.625 18.792969 26.625 18.832031 26.625 18.875 C 26.378906 18.875 26.128906 18.875 25.875 18.875 C 25.875 18.832031 25.875 18.792969 25.875 18.75 Z M 25.875 18.75 "/>
<path style=" stroke:none;fill-rule:nonzero;fill:rgb(100%,100%,83.137256%);fill-opacity:1;" d="M 28.625 16 C 28.871094 16 29.121094 16 29.375 16 C 29.375 16.042969 29.375 16.082031 29.375 16.125 C 29.128906 16.125 28.878906 16.125 28.625 16.125 C 28.625 16.082031 28.625 16.042969 28.625 16 Z M 28.625 16 "/>
<path style=" stroke:none;fill-rule:nonzero;fill:rgb(58.039218%,72.156864%,53.725493%);fill-opacity:1;" d="M 37.75 13.625 C 37.996094 13.625 38.246094 13.625 38.5 13.625 C 38.5 13.667969 38.5 13.707031 38.5 13.75 C 38.253906 13.75 38.003906 13.75 37.75 13.75 C 37.75 13.707031 37.75 13.667969 37.75 13.625 Z M 37.75 13.625 "/>
<path style=" stroke:none;fill-rule:nonzero;fill:rgb(70.588237%,74.901962%,70.588237%);fill-opacity:1;" d="M 36 9 C 36.246094 9 36.496094 9 36.75 9 C 36.75 9.042969 36.75 9.082031 36.75 9.125 C 36.503906 9.125 36.253906 9.125 36 9.125 C 36 9.082031 36 9.042969 36 9 Z M 36 9 "/>
<path style=" stroke:none;fill-rule:nonzero;fill:rgb(70.588237%,91.37255%,70.588237%);fill-opacity:1;" d="M 38.5 8.375 C 38.746094 8.375 38.996094 8.375 39.25 8.375 C 39.25 8.417969 39.25 8.457031 39.25 8.5 C 39.003906 8.5 38.753906 8.5 38.5 8.5 C 38.5 8.457031 38.5 8.417969 38.5 8.375 Z M 38.5 8.375 "/>
<path style=" stroke:none;fill-rule:nonzero;fill:rgb(66.274512%,78.039217%,61.56863%);fill-opacity:1;" d="M 23.25 25.75 C 23.457031 25.75 23.664062 25.75 23.875 25.75 C 23.875 25.792969 23.875 25.832031 23.875 25.875 C 23.667969 25.875 23.460938 25.875 23.25 25.875 C 23.25 25.832031 23.25 25.792969 23.25 25.75 Z M 23.25 25.75 "/>
<path style=" stroke:none;fill-rule:nonzero;fill:rgb(100%,100%,100%);fill-opacity:1;" d="M 25.75 22.25 C 25.957031 22.25 26.164062 22.25 26.375 22.25 C 26.375 22.292969 26.375 22.332031 26.375 22.375 C 26.167969 22.375 25.960938 22.375 25.75 22.375 C 25.75 22.332031 25.75 22.292969 25.75 22.25 Z M 25.75 22.25 "/>
<path style=" stroke:none;fill-rule:nonzero;fill:rgb(49.803922%,61.56863%,44.705883%);fill-opacity:1;" d="M 30.375 19.875 C 30.582031 19.875 30.789062 19.875 31 19.875 C 31 19.917969 31 19.957031 31 20 C 30.792969 20 30.585938 20 30.375 20 C 30.375 19.957031 30.375 19.917969 30.375 19.875 Z M 30.375 19.875 "/>
<path style=" stroke:none;fill-rule:nonzero;fill:rgb(61.56863%,78.039217%,54.901963%);fill-opacity:1;" d="M 38.875 15.75 C 39.082031 15.75 39.289062 15.75 39.5 15.75 C 39.5 15.792969 39.5 15.832031 39.5 15.875 C 39.292969 15.875 39.085938 15.875 38.875 15.875 C 38.875 15.832031 38.875 15.792969 38.875 15.75 Z M 38.875 15.75 "/>
<path style=" stroke:none;fill-rule:nonzero;fill:rgb(54.901963%,71.372551%,54.901963%);fill-opacity:1;" d="M 39.5 15.625 C 39.707031 15.625 39.914062 15.625 40.125 15.625 C 40.125 15.667969 40.125 15.707031 40.125 15.75 C 39.917969 15.75 39.710938 15.75 39.5 15.75 C 39.5 15.707031 39.5 15.667969 39.5 15.625 Z M 39.5 15.625 "/>
<path style=" stroke:none;fill-rule:nonzero;fill:rgb(69.803923%,74.901962%,59.607846%);fill-opacity:1;" d="M 37.125 13.5 C 37.332031 13.5 37.539062 13.5 37.75 13.5 C 37.75 13.542969 37.75 13.582031 37.75 13.625 C 37.542969 13.625 37.335938 13.625 37.125 13.625 C 37.125 13.582031 37.125 13.542969 37.125 13.5 Z M 37.125 13.5 "/>
<path style=" stroke:none;fill-rule:nonzero;fill:rgb(74.901962%,84.705883%,64.705884%);fill-opacity:1;" d="M 36.5 13.375 C 36.707031 13.375 36.914062 13.375 37.125 13.375 C 37.125 13.417969 37.125 13.457031 37.125 13.5 C 36.917969 13.5 36.710938 13.5 36.5 13.5 C 36.5 13.457031 36.5 13.417969 36.5 13.375 Z M 36.5 13.375 "/>
<path style=" stroke:none;fill-rule:nonzero;fill:rgb(54.901963%,78.039217%,54.901963%);fill-opacity:1;" d="M 31.375 10.375 C 31.582031 10.375 31.789062 10.375 32 10.375 C 32 10.417969 32 10.457031 32 10.5 C 31.792969 10.5 31.585938 10.5 31.375 10.5 C 31.375 10.457031 31.375 10.417969 31.375 10.375 Z M 31.375 10.375 "/>
<path style=" stroke:none;fill-rule:nonzero;fill:rgb(71.372551%,78.039217%,59.607846%);fill-opacity:1;" d="M 28.375 10.125 C 28.582031 10.125 28.789062 10.125 29 10.125 C 29 10.167969 29 10.207031 29 10.25 C 28.792969 10.25 28.585938 10.25 28.375 10.25 C 28.375 10.207031 28.375 10.167969 28.375 10.125 Z M 28.375 10.125 "/>
<path style=" stroke:none;fill-rule:nonzero;fill:rgb(56.078434%,70.588237%,56.078434%);fill-opacity:1;" d="M 21.375 28 C 21.875 28.125 21.875 28.125 21.875 28.125 Z M 21.375 28 "/>
<path style=" stroke:none;fill-rule:nonzero;fill:rgb(67.450982%,72.156864%,62.352943%);fill-opacity:1;" d="M 40.5 25 C 40.625 25.5 40.625 25.5 40.625 25.5 Z M 40.5 25 "/>
<path style=" stroke:none;fill-rule:nonzero;fill:rgb(100%,100%,100%);fill-opacity:1;" d="M 26.625 20.625 C 27.125 20.75 27.125 20.75 27.125 20.75 Z M 26.625 20.625 "/>
<path style=" stroke:none;fill-rule:nonzero;fill:rgb(43.529412%,64.313728%,43.529412%);fill-opacity:1;" d="M 31.125 19.875 C 31.625 20 31.625 20 31.625 20 Z M 31.125 19.875 "/>
<path style=" stroke:none;fill-rule:nonzero;fill:rgb(62.352943%,78.823531%,62.352943%);fill-opacity:1;" d="M 29.875 19.75 C 30.375 19.875 30.375 19.875 30.375 19.875 Z M 29.875 19.75 "/>
<path style=" stroke:none;fill-rule:nonzero;fill:rgb(47.843137%,87.450981%,47.843137%);fill-opacity:1;" d="M 29.375 19.625 C 29.875 19.75 29.875 19.75 29.875 19.75 Z M 29.375 19.625 "/>
<path style=" stroke:none;fill-rule:nonzero;fill:rgb(49.803922%,58.039218%,41.568628%);fill-opacity:1;" d="M 28.375 19.625 C 28.875 19.75 28.875 19.75 28.875 19.75 Z M 28.375 19.625 "/>
<path style=" stroke:none;fill-rule:nonzero;fill:rgb(24.705882%,49.803922%,24.705882%);fill-opacity:1;" d="M 28.875 19.5 C 29.375 19.625 29.375 19.625 29.375 19.625 Z M 28.875 19.5 "/>
<path style=" stroke:none;fill-rule:nonzero;fill:rgb(49.803922%,74.901962%,49.803922%);fill-opacity:1;" d="M 26.625 19 C 27.125 19.125 27.125 19.125 27.125 19.125 Z M 26.625 19 "/>
<path style=" stroke:none;fill-rule:nonzero;fill:rgb(47.843137%,62.352943%,47.843137%);fill-opacity:1;" d="M 26.75 18.75 C 27.25 18.875 27.25 18.875 27.25 18.875 Z M 26.75 18.75 "/>
<path style=" stroke:none;fill-rule:nonzero;fill:rgb(53.333336%,79.607844%,53.333336%);fill-opacity:1;" d="M 27.75 16.625 C 27.875 16.625 27.996094 16.625 28.125 16.625 C 28.082031 16.707031 28.042969 16.789062 28 16.875 C 27.917969 16.792969 27.835938 16.710938 27.75 16.625 Z M 27.75 16.625 "/>
<path style=" stroke:none;fill-rule:nonzero;fill:rgb(62.352943%,76.862746%,62.352943%);fill-opacity:1;" d="M 40.125 15.5 C 40.625 15.625 40.625 15.625 40.625 15.625 Z M 40.125 15.5 "/>
<path style=" stroke:none;fill-rule:nonzero;fill:rgb(45.490196%,60.392159%,37.254903%);fill-opacity:1;" d="M 36 13.25 C 36.5 13.375 36.5 13.375 36.5 13.375 Z M 36 13.25 "/>
<path style=" stroke:none;fill-rule:nonzero;fill:rgb(74.901962%,74.901962%,74.901962%);fill-opacity:1;" d="M 35.625 10.875 C 36.125 11 36.125 11 36.125 11 Z M 35.625 10.875 "/>
<path style=" stroke:none;fill-rule:nonzero;fill:rgb(91.37255%,91.37255%,91.37255%);fill-opacity:1;" d="M 32.75 57 C 33.125 57.125 33.125 57.125 33.125 57.125 Z M 32.75 57 "/>
<path style=" stroke:none;fill-rule:nonzero;fill:rgb(49.803922%,69.411767%,49.803922%);fill-opacity:1;" d="M 40.5 29.875 C 40.875 30 40.875 30 40.875 30 Z M 40.5 29.875 "/>
<path style=" stroke:none;fill-rule:nonzero;fill:rgb(83.137256%,91.37255%,83.137256%);fill-opacity:1;" d="M 40.125 29.75 C 40.5 29.875 40.5 29.875 40.5 29.875 Z M 40.125 29.75 "/>
<path style=" stroke:none;fill-rule:nonzero;fill:rgb(83.137256%,91.37255%,74.901962%);fill-opacity:1;" d="M 21.875 27.875 C 22.25 28 22.25 28 22.25 28 Z M 21.875 27.875 "/>
<path style=" stroke:none;fill-rule:nonzero;fill:rgb(60.784316%,80.392158%,60.784316%);fill-opacity:1;" d="M 39.125 27.625 C 39.5 27.75 39.5 27.75 39.5 27.75 Z M 39.125 27.625 "/>
<path style=" stroke:none;fill-rule:nonzero;fill:rgb(83.137256%,91.37255%,83.137256%);fill-opacity:1;" d="M 21.125 27.625 C 21.5 27.75 21.5 27.75 21.5 27.75 Z M 21.125 27.625 "/>
<path style=" stroke:none;fill-rule:nonzero;fill:rgb(55.29412%,83.137256%,55.29412%);fill-opacity:1;" d="M 29.25 23.375 C 29.625 23.5 29.625 23.5 29.625 23.5 Z M 29.25 23.375 "/>
<path style=" stroke:none;fill-rule:nonzero;fill:rgb(60.784316%,88.627452%,60.784316%);fill-opacity:1;" d="M 28.875 23.25 C 29.25 23.375 29.25 23.375 29.25 23.375 Z M 28.875 23.25 "/>
<path style=" stroke:none;fill-rule:nonzero;fill:rgb(44.313726%,55.29412%,44.313726%);fill-opacity:1;" d="M 28.5 23.125 C 28.875 23.25 28.875 23.25 28.875 23.25 Z M 28.5 23.125 "/>
<path style=" stroke:none;fill-rule:nonzero;fill:rgb(49.803922%,69.411767%,49.803922%);fill-opacity:1;" d="M 28.125 23 C 28.5 23.125 28.5 23.125 28.5 23.125 Z M 28.125 23 "/>
<path style=" stroke:none;fill-rule:nonzero;fill:rgb(83.137256%,91.37255%,49.803922%);fill-opacity:1;" d="M 27.5 22.75 C 27.875 22.875 27.875 22.875 27.875 22.875 Z M 27.5 22.75 "/>
<path style=" stroke:none;fill-rule:nonzero;fill:rgb(60.784316%,80.392158%,49.803922%);fill-opacity:1;" d="M 27.125 22.625 C 27.5 22.75 27.5 22.75 27.5 22.75 Z M 27.125 22.625 "/>
<path style=" stroke:none;fill-rule:nonzero;fill:rgb(49.803922%,80.392158%,49.803922%);fill-opacity:1;" d="M 26.75 22.5 C 27.125 22.625 27.125 22.625 27.125 22.625 Z M 26.75 22.5 "/>
<path style=" stroke:none;fill-rule:nonzero;fill:rgb(60.784316%,80.392158%,49.803922%);fill-opacity:1;" d="M 26.375 22.375 C 26.75 22.5 26.75 22.5 26.75 22.5 Z M 26.375 22.375 "/>
<path style=" stroke:none;fill-rule:nonzero;fill:rgb(60.784316%,80.392158%,49.803922%);fill-opacity:1;" d="M 25.375 22.375 C 25.75 22.5 25.75 22.5 25.75 22.5 Z M 25.375 22.375 "/>
<path style=" stroke:none;fill-rule:nonzero;fill:rgb(49.803922%,69.411767%,49.803922%);fill-opacity:1;" d="M 26.25 20.5 C 26.625 20.625 26.625 20.625 26.625 20.625 Z M 26.25 20.5 "/>
<path style=" stroke:none;fill-rule:nonzero;fill:rgb(88.627452%,88.627452%,88.627452%);fill-opacity:1;" d="M 30.25 18 C 30.625 18.125 30.625 18.125 30.625 18.125 Z M 30.25 18 "/>
<path style=" stroke:none;fill-rule:nonzero;fill:rgb(66.666669%,100%,66.666669%);fill-opacity:1;" d="M 27.375 16.5 C 27.75 16.625 27.75 16.625 27.75 16.625 Z M 27.375 16.5 "/>
<path style=" stroke:none;fill-rule:nonzero;fill:rgb(49.803922%,69.411767%,49.803922%);fill-opacity:1;" d="M 40.625 15.375 C 41 15.5 41 15.5 41 15.5 Z M 40.625 15.375 "/>
<path style=" stroke:none;fill-rule:nonzero;fill:rgb(55.29412%,77.64706%,55.29412%);fill-opacity:1;" d="M 30 14.5 C 30.375 14.625 30.375 14.625 30.375 14.625 Z M 30 14.5 "/>
<path style=" stroke:none;fill-rule:nonzero;fill:rgb(63.529414%,83.137256%,63.529414%);fill-opacity:1;" d="M 29.625 14.375 C 30 14.5 30 14.5 30 14.5 Z M 29.625 14.375 "/>
<path style=" stroke:none;fill-rule:nonzero;fill:rgb(27.450982%,55.29412%,27.450982%);fill-opacity:1;" d="M 29 14.125 C 29.375 14.25 29.375 14.25 29.375 14.25 Z M 29 14.125 "/>
<path style=" stroke:none;fill-rule:nonzero;fill:rgb(60.784316%,80.392158%,60.784316%);fill-opacity:1;" d="M 39.875 11.25 C 40.25 11.375 40.25 11.375 40.25 11.375 Z M 39.875 11.25 "/>
<path style=" stroke:none;fill-rule:nonzero;fill:rgb(44.313726%,88.627452%,44.313726%);fill-opacity:1;" d="M 36.125 11 C 36.5 11.125 36.5 11.125 36.5 11.125 Z M 36.125 11 "/>
<path style=" stroke:none;fill-rule:nonzero;fill:rgb(60.784316%,69.411767%,16.470589%);fill-opacity:1;" d="M 35.875 10.5 C 36.25 10.625 36.25 10.625 36.25 10.625 Z M 35.875 10.5 "/>
<path style=" stroke:none;fill-rule:nonzero;fill:rgb(60.784316%,69.411767%,49.803922%);fill-opacity:1;" d="M 32 10.5 C 32.375 10.625 32.375 10.625 32.375 10.625 Z M 32 10.5 "/>
<path style=" stroke:none;fill-rule:nonzero;fill:rgb(49.803922%,60.784316%,49.803922%);fill-opacity:1;" d="M 26 10 C 26.375 10.125 26.375 10.125 26.375 10.125 Z M 26 10 "/>
<path style=" stroke:none;fill-rule:nonzero;fill:rgb(83.137256%,100%,83.137256%);fill-opacity:1;" d="M 33.125 56.875 C 33.375 57 33.375 57 33.375 57 Z M 33.125 56.875 "/>
<path style=" stroke:none;fill-rule:nonzero;fill:rgb(62.352943%,74.901962%,62.352943%);fill-opacity:1;" d="M 29.25 46.125 C 29.5 46.25 29.5 46.25 29.5 46.25 Z M 29.25 46.125 "/>
<path style=" stroke:none;fill-rule:nonzero;fill:rgb(49.803922%,74.901962%,37.254903%);fill-opacity:1;" d="M 28.375 45.625 C 28.625 45.75 28.625 45.75 28.625 45.75 Z M 28.375 45.625 "/>
<path style=" stroke:none;fill-rule:nonzero;fill:rgb(66.666669%,83.137256%,66.666669%);fill-opacity:1;" d="M 28.125 45.5 C 28.375 45.625 28.375 45.625 28.375 45.625 Z M 28.125 45.5 "/>
<path style=" stroke:none;fill-rule:nonzero;fill:rgb(37.254903%,74.901962%,37.254903%);fill-opacity:1;" d="M 27 44.875 C 27.25 45 27.25 45 27.25 45 Z M 27 44.875 "/>
<path style=" stroke:none;fill-rule:nonzero;fill:rgb(66.666669%,83.137256%,66.666669%);fill-opacity:1;" d="M 26.75 44.75 C 27 44.875 27 44.875 27 44.875 Z M 26.75 44.75 "/>
<path style=" stroke:none;fill-rule:nonzero;fill:rgb(83.137256%,83.137256%,83.137256%);fill-opacity:1;" d="M 29.875 44.625 C 30.125 44.75 30.125 44.75 30.125 44.75 Z M 29.875 44.625 "/>
<path style=" stroke:none;fill-rule:nonzero;fill:rgb(66.666669%,83.137256%,66.666669%);fill-opacity:1;" d="M 26.5 44.625 C 26.75 44.75 26.75 44.75 26.75 44.75 Z M 26.5 44.625 "/>
<path style=" stroke:none;fill-rule:nonzero;fill:rgb(74.901962%,87.450981%,74.901962%);fill-opacity:1;" d="M 29.625 44.5 C 29.875 44.625 29.875 44.625 29.875 44.625 Z M 29.625 44.5 "/>
<path style=" stroke:none;fill-rule:nonzero;fill:rgb(66.666669%,83.137256%,66.666669%);fill-opacity:1;" d="M 26.25 44.5 C 26.5 44.625 26.5 44.625 26.5 44.625 Z M 26.25 44.5 "/>
<path style=" stroke:none;fill-rule:nonzero;fill:rgb(62.352943%,74.901962%,62.352943%);fill-opacity:1;" d="M 25.625 44.125 C 25.875 44.25 25.875 44.25 25.875 44.25 Z M 25.625 44.125 "/>
<path style=" stroke:none;fill-rule:nonzero;fill:rgb(66.666669%,83.137256%,66.666669%);fill-opacity:1;" d="M 25.375 44 C 25.625 44.125 25.625 44.125 25.625 44.125 Z M 25.375 44 "/>
<path style=" stroke:none;fill-rule:nonzero;fill:rgb(62.352943%,87.450981%,62.352943%);fill-opacity:1;" d="M 28.125 43.625 C 28.375 43.75 28.375 43.75 28.375 43.75 Z M 28.125 43.625 "/>
<path style=" stroke:none;fill-rule:nonzero;fill:rgb(74.901962%,74.901962%,62.352943%);fill-opacity:1;" d="M 27.5 43.25 C 27.75 43.375 27.75 43.375 27.75 43.375 Z M 27.5 43.25 "/>
<path style=" stroke:none;fill-rule:nonzero;fill:rgb(66.666669%,83.137256%,16.470589%);fill-opacity:1;" d="M 40.875 31.25 C 41.125 31.375 41.125 31.375 41.125 31.375 Z M 40.875 31.25 "/>
<path style=" stroke:none;fill-rule:nonzero;fill:rgb(66.666669%,83.137256%,66.666669%);fill-opacity:1;" d="M 39.75 31.25 C 40 31.375 40 31.375 40 31.375 Z M 39.75 31.25 "/>
<path style=" stroke:none;fill-rule:nonzero;fill:rgb(41.568628%,83.137256%,41.568628%);fill-opacity:1;" d="M 40.875 30 C 41.125 30.125 41.125 30.125 41.125 30.125 Z M 40.875 30 "/>
<path style=" stroke:none;fill-rule:nonzero;fill:rgb(74.901962%,74.901962%,74.901962%);fill-opacity:1;" d="M 34.625 29.5 C 34.875 29.625 34.875 29.625 34.875 29.625 Z M 34.625 29.5 "/>
<path style=" stroke:none;fill-rule:nonzero;fill:rgb(41.568628%,83.137256%,41.568628%);fill-opacity:1;" d="M 22.375 29.375 C 22.625 29.5 22.625 29.5 22.625 29.5 Z M 22.375 29.375 "/>
<path style=" stroke:none;fill-rule:nonzero;fill:rgb(41.568628%,83.137256%,41.568628%);fill-opacity:1;" d="M 21.375 29.375 C 21.625 29.5 21.625 29.5 21.625 29.5 Z M 21.375 29.375 "/>
<path style=" stroke:none;fill-rule:nonzero;fill:rgb(66.666669%,83.137256%,66.666669%);fill-opacity:1;" d="M 42.625 28.5 C 42.875 28.625 42.875 28.625 42.875 28.625 Z M 42.625 28.5 "/>
<path style=" stroke:none;fill-rule:nonzero;fill:rgb(80.000001%,89.803922%,80.000001%);fill-opacity:1;" d="M 23 25.625 C 23.25 25.75 23.25 25.75 23.25 25.75 Z M 23 25.625 "/>
<path style=" stroke:none;fill-rule:nonzero;fill:rgb(66.666669%,83.137256%,66.666669%);fill-opacity:1;" d="M 40 24.5 C 40.25 24.625 40.25 24.625 40.25 24.625 Z M 40 24.5 "/>
<path style=" stroke:none;fill-rule:nonzero;fill:rgb(74.901962%,87.450981%,74.901962%);fill-opacity:1;" d="M 39.75 24.375 C 40 24.5 40 24.5 40 24.5 Z M 39.75 24.375 "/>
<path style=" stroke:none;fill-rule:nonzero;fill:rgb(83.137256%,83.137256%,83.137256%);fill-opacity:1;" d="M 27.875 22.875 C 28.125 23 28.125 23 28.125 23 Z M 27.875 22.875 "/>
<path style=" stroke:none;fill-rule:nonzero;fill:rgb(66.666669%,83.137256%,66.666669%);fill-opacity:1;" d="M 27.125 20.5 C 27.375 20.625 27.375 20.625 27.375 20.625 Z M 27.125 20.5 "/>
<path style=" stroke:none;fill-rule:nonzero;fill:rgb(83.137256%,100%,83.137256%);fill-opacity:1;" d="M 28.125 19.75 C 28.375 19.875 28.375 19.875 28.375 19.875 Z M 28.125 19.75 "/>
<path style=" stroke:none;fill-rule:nonzero;fill:rgb(74.901962%,87.450981%,74.901962%);fill-opacity:1;" d="M 26.375 19.125 C 26.625 19.25 26.625 19.25 26.625 19.25 Z M 26.375 19.125 "/>
<path style=" stroke:none;fill-rule:nonzero;fill:rgb(66.666669%,83.137256%,41.568628%);fill-opacity:1;" d="M 25.625 18.625 C 25.875 18.75 25.875 18.75 25.875 18.75 Z M 25.625 18.625 "/>
<path style=" stroke:none;fill-rule:nonzero;fill:rgb(74.901962%,87.450981%,74.901962%);fill-opacity:1;" d="M 27.125 16.625 C 27.375 16.75 27.375 16.75 27.375 16.75 Z M 27.125 16.625 "/>
<path style=" stroke:none;fill-rule:nonzero;fill:rgb(74.901962%,87.450981%,74.901962%);fill-opacity:1;" d="M 29.375 16.125 C 29.625 16.25 29.625 16.25 29.625 16.25 Z M 29.375 16.125 "/>
<path style=" stroke:none;fill-rule:nonzero;fill:rgb(83.137256%,83.137256%,83.137256%);fill-opacity:1;" d="M 41 15.25 C 41.25 15.375 41.25 15.375 41.25 15.375 Z M 41 15.25 "/>
<path style=" stroke:none;fill-rule:nonzero;fill:rgb(74.901962%,87.450981%,74.901962%);fill-opacity:1;" d="M 30.375 14.625 C 30.625 14.75 30.625 14.75 30.625 14.75 Z M 30.375 14.625 "/>
<path style=" stroke:none;fill-rule:nonzero;fill:rgb(66.666669%,83.137256%,66.666669%);fill-opacity:1;" d="M 29.375 14.25 C 29.625 14.375 29.625 14.375 29.625 14.375 Z M 29.375 14.25 "/>
<path style=" stroke:none;fill-rule:nonzero;fill:rgb(83.137256%,100%,83.137256%);fill-opacity:1;" d="M 28.75 14 C 29 14.125 29 14.125 29 14.125 Z M 28.75 14 "/>
<path style=" stroke:none;fill-rule:nonzero;fill:rgb(74.901962%,87.450981%,74.901962%);fill-opacity:1;" d="M 35.75 13.125 C 36 13.25 36 13.25 36 13.25 Z M 35.75 13.125 "/>
<path style=" stroke:none;fill-rule:nonzero;fill:rgb(83.137256%,100%,83.137256%);fill-opacity:1;" d="M 41.25 11.125 C 41.5 11.25 41.5 11.25 41.5 11.25 Z M 41.25 11.125 "/>
<path style=" stroke:none;fill-rule:nonzero;fill:rgb(37.254903%,74.901962%,37.254903%);fill-opacity:1;" d="M 35.375 11 C 35.625 11.125 35.625 11.125 35.625 11.125 Z M 35.375 11 "/>
<path style=" stroke:none;fill-rule:nonzero;fill:rgb(66.666669%,83.137256%,16.470589%);fill-opacity:1;" d="M 32.375 10.625 C 32.625 10.75 32.625 10.75 32.625 10.75 Z M 32.375 10.625 "/>
<path style=" stroke:none;fill-rule:nonzero;fill:rgb(66.666669%,83.137256%,66.666669%);fill-opacity:1;" d="M 41.25 9.875 C 41.5 10 41.5 10 41.5 10 Z M 41.25 9.875 "/>
<path style=" stroke:none;fill-rule:nonzero;fill:rgb(66.666669%,83.137256%,66.666669%);fill-opacity:1;" d="M 40.125 9.875 C 40.375 10 40.375 10 40.375 10 Z M 40.125 9.875 "/>
<path style=" stroke:none;fill-rule:nonzero;fill:rgb(74.901962%,87.450981%,74.901962%);fill-opacity:1;" d="M 36.75 9.125 C 37 9.25 37 9.25 37 9.25 Z M 36.75 9.125 "/>
<path style=" stroke:none;fill-rule:nonzero;fill:rgb(66.666669%,83.137256%,66.666669%);fill-opacity:1;" d="M 35.75 9.125 C 36 9.25 36 9.25 36 9.25 Z M 35.75 9.125 "/>
<path style=" stroke:none;fill-rule:nonzero;fill:rgb(66.666669%,83.137256%,66.666669%);fill-opacity:1;" d="M 38.25 8.5 C 38.5 8.625 38.5 8.625 38.5 8.625 Z M 38.25 8.5 "/>
</g>
</svg>
